<svg width="24" height="24" viewBox="0 0 24 24" fill="none" xmlns="http://www.w3.org/2000/svg">
<g id="Icon-for-buttons">
<path id="apply-color-here" fill-rule="evenodd" clip-rule="evenodd" d="M7.05048 3.05025C8.36323 1.7375 10.1437 1 12.0002 1C13.8567 1 15.6372 1.7375 16.95 3.05025C18.2627 4.36301 19.0002 6.14349 19.0002 8C19.0002 10.9127 19.7322 12.8439 20.4996 14.0771L20.5114 14.096C20.8687 14.6703 21.1512 15.1243 21.3416 15.4547C21.4371 15.6202 21.524 15.7797 21.5884 15.9215C21.6205 15.9922 21.6564 16.079 21.6845 16.1733C21.7078 16.2515 21.7522 16.4187 21.7356 16.6223C21.7244 16.7591 21.6965 16.9928 21.5623 17.2343C21.4282 17.4758 21.2445 17.623 21.1342 17.7047C20.8839 17.8904 20.5965 17.9329 20.5006 17.947L20.4961 17.9477C20.3487 17.9695 20.1815 17.9804 20.0127 17.9869C19.6774 18 19.2133 18 18.6361 18H18.6114H5.38908H5.36437C4.78715 18 4.32301 18 3.98775 17.9869C3.819 17.9804 3.65172 17.9695 3.50431 17.9477L3.49988 17.947C3.40394 17.9329 3.11652 17.8904 2.86623 17.7047C2.75599 17.623 2.57226 17.4758 2.43811 17.2343C2.30396 16.9928 2.27607 16.7591 2.26488 16.6223C2.24823 16.4187 2.29263 16.2515 2.31594 16.1733C2.34403 16.079 2.37997 15.9922 2.4121 15.9215C2.47647 15.7797 2.5634 15.6202 2.65882 15.4547C2.84924 15.1243 3.1317 14.6703 3.48901 14.0961L3.50084 14.0771C4.26822 12.8439 5.00023 10.9127 5.00023 8C5.00023 6.14348 5.73772 4.36301 7.05048 3.05025ZM12.0002 3C10.6741 3 9.40237 3.52678 8.46469 4.46447C7.52701 5.40215 7.00023 6.67392 7.00023 8C7.00023 11.2677 6.17317 13.5681 5.19894 15.1337C4.98609 15.4758 4.80845 15.7614 4.66331 15.9988C4.86988 16 5.11021 16 5.38908 16H18.6114C18.8902 16 19.1306 16 19.3371 15.9988C19.192 15.7614 19.0144 15.4758 18.8015 15.1337C17.8273 13.5681 17.0002 11.2677 17.0002 8C17.0002 6.67392 16.4734 5.40215 15.5358 4.46447C14.5981 3.52678 13.3263 3 12.0002 3ZM9.00023 21C9.00023 20.4477 9.44794 20 10.0002 20H14.0002C14.5525 20 15.0002 20.4477 15.0002 21C15.0002 21.5523 14.5525 22 14.0002 22H10.0002C9.44794 22 9.00023 21.5523 9.00023 21Z" fill="white"/>
</g>
</svg>
