<svg xmlns="http://www.w3.org/2000/svg" width="24" height="24" viewBox="0 0 24 24" fill="currentColor"><path fill="inherit" d="M15.455 4.882l.627 1.253 1.183.395c1.443.48 1.728.6 1.92.742a2 2 0 01.718.997c.074.227.097.71.097 2.231h2c0-1.38 0-2.247-.193-2.846a4 4 0 00-1.438-1.994c-.647-.476-1.453-.722-2.235-.96-.214-.066-.427-.131-.634-.2-.08-.16-.157-.327-.235-.494-.252-.542-.51-1.098-.905-1.53a3 3 0 00-1.394-.862c-.402-.114-.85-.114-1.747-.114H10.78c-.896 0-1.345 0-1.747.114a3 3 0 00-1.394.862c-.282.309-.483.71-.884 1.512L6.5 4.5l-.397.132c-1.31.437-1.965.655-2.473 1.028a4 4 0 00-1.437 1.994C2 8.254 2 9.12 2 10.5h2c0-1.521.023-2.004.097-2.231a2 2 0 01.718-.997c.192-.142.477-.261 1.92-.742l1.183-.395.627-1.253c.455-.91.522-1.003.57-1.057a1 1 0 01.466-.287c.07-.02.184-.038 1.2-.038h2.438c1.016 0 1.13.018 1.2.038a1 1 0 01.465.287c.05.054.116.148.57 1.057zM4 14.5H2c0 1.864 0 2.796.304 3.53a4 4 0 002.165 2.165c.735.305 1.667.305 3.531.305h2v-2H8c-.96 0-1.579-.001-2.052-.033-.456-.031-.63-.085-.713-.12a2 2 0 01-1.083-1.082c-.034-.083-.087-.256-.119-.713C4.001 16.078 4 15.46 4 14.5zm15.53 5.695c-.734.305-1.666.305-3.53.305h-2v-2h2c.96 0 1.578-.001 2.052-.033.457-.031.63-.085.713-.12a2 2 0 001.083-1.082c.034-.083.088-.256.119-.713.032-.474.033-1.093.033-2.052h2c0 1.864 0 2.796-.305 3.53a4 4 0 01-2.164 2.165z"/><path fill="inherit" fill-rule="evenodd" d="M12 17a5 5 0 100-10 5 5 0 000 10zm3-5a3 3 0 11-6 0 3 3 0 016 0z" clip-rule="evenodd"/></svg>