<svg viewBox="0 0 47 47" fill="none" xmlns="http://www.w3.org/2000/svg">
<path d="M4.92297 19.8653C4.32092 19.3086 4.64796 18.302 5.46229 18.2055L17.001 16.8369C17.3329 16.7975 17.6212 16.5891 17.7612 16.2856L22.6281 5.73434C22.9716 4.98969 24.0302 4.98955 24.3736 5.73419L29.2405 16.2854C29.3805 16.5889 29.6669 16.7978 29.9988 16.8372L41.5382 18.2055C42.3525 18.302 42.6786 19.3089 42.0766 19.8656L33.5466 27.7553C33.3013 27.9822 33.192 28.32 33.2572 28.6478L35.521 40.0445C35.6808 40.8489 34.8248 41.4721 34.1092 41.0715L23.9701 35.3946C23.6785 35.2314 23.3242 35.2321 23.0326 35.3954L12.8924 41.0701C12.1769 41.4706 11.3193 40.8488 11.4791 40.0445L13.7433 28.6485C13.8084 28.3207 13.6995 27.9822 13.4541 27.7553L4.92297 19.8653Z" fill="currentColor" stroke="currentColor" stroke-width="2" stroke-linecap="round" stroke-linejoin="round"/>
</svg>
