<svg width="40" height="40" viewBox="0 0 40 40" fill="none" xmlns="http://www.w3.org/2000/svg">
<g id="Social media">
<path id="Subtract" fill-rule="evenodd" clip-rule="evenodd" d="M13.3359 3.33203H26.6692C32.1921 3.33203 36.6692 7.80918 36.6692 13.332V26.6653C36.6692 32.1882 32.1921 36.6653 26.6692 36.6653H13.3359C7.81309 36.6653 3.33594 32.1882 3.33594 26.6653V13.332C3.33594 7.80918 7.81309 3.33203 13.3359 3.33203ZM26.6712 28.3724C26.6712 28.3724 26.1994 29.5257 24.9413 28.9753L20.2233 25.3582L17.1828 28.1103C17.1828 28.1103 16.9469 28.2938 16.6848 28.189C16.6848 28.189 16.4489 28.1628 16.1868 27.2978C15.8984 26.4066 14.483 21.7673 14.483 21.7673L9.79125 20.1946C9.79125 20.1946 9.08355 19.9325 9.00491 19.382C8.92628 18.8316 9.81746 18.5171 9.81746 18.5171L28.4535 11.2042C28.4535 11.2042 29.9738 10.5227 30 11.6498L26.6712 28.3724ZM26.3804 14.6122C26.4066 14.2191 25.7513 14.6122 25.7513 14.6122L15.4504 21.165C15.2931 21.2699 15.2407 21.4533 15.2931 21.6106L16.525 25.6471C16.6037 25.883 16.9444 25.8568 16.9968 25.5947L17.2851 23.1308C17.2851 23.026 17.3376 22.9474 17.4162 22.8949C18.4122 22.0038 25.83 15.3462 26.1445 15.0316C26.4852 14.6647 26.3804 14.6122 26.3804 14.6122Z" fill="#747474"/>
</g>
</svg>
