<svg width="40" height="40" viewBox="0 0 40 40" fill="none" xmlns="http://www.w3.org/2000/svg">
<g id="Social media">
<path id="Vector" fill-rule="evenodd" clip-rule="evenodd" d="M4.67569 8.33204C3.33594 10.6526 3.33594 13.7679 3.33594 19.9987C3.33594 26.2295 3.33594 29.3449 4.67569 31.6654C5.55337 33.1856 6.81575 34.4479 8.33594 35.3256C10.6564 36.6654 13.7718 36.6654 20.0026 36.6654C26.2334 36.6654 29.3487 36.6654 31.6692 35.3256C33.1894 34.4479 34.4518 33.1856 35.3295 31.6654C36.6692 29.3449 36.6692 26.2295 36.6692 19.9987C36.6692 13.7679 36.6692 10.6526 35.3295 8.33204C34.4518 6.81184 33.1894 5.54946 31.6692 4.67178C29.3487 3.33203 26.2334 3.33203 20.0026 3.33203C13.7718 3.33203 10.6564 3.33203 8.33594 4.67178C6.81575 5.54946 5.55337 6.81184 4.67569 8.33204ZM9.58597 13.7487H12.0165C12.6377 13.7487 12.8713 14.0206 13.1043 14.6936C14.293 18.1564 16.2974 21.1827 17.1213 21.1827C17.4303 21.1827 17.5721 21.0404 17.5721 20.2556V16.6764C17.5163 15.6575 17.1604 15.2169 16.8967 14.8906C16.734 14.689 16.6064 14.5311 16.6064 14.3074C16.6064 14.0355 16.8386 13.7487 17.2248 13.7487H21.0443C21.5593 13.7487 21.7387 14.0241 21.7387 14.6422V19.4574C21.7387 19.9724 21.9623 20.1526 22.1168 20.1526C22.4258 20.1526 22.6833 19.9724 23.2498 19.4059C25.0008 17.4489 26.2368 14.4361 26.2368 14.4361C26.3914 14.0756 26.6763 13.7487 27.2943 13.7487H29.7248C30.4599 13.7487 30.6143 14.1271 30.4599 14.6422C30.1729 15.9572 27.5991 19.648 27.2328 20.1686L27.1896 20.2299C26.9321 20.6418 26.8291 20.8479 27.1896 21.3113C27.3165 21.4891 27.5874 21.7545 27.8974 22.0581C28.2161 22.3703 28.5761 22.7229 28.8633 23.0624C29.9074 24.2369 30.6942 25.2278 30.9134 25.9107C31.1137 26.5959 30.7665 26.9432 30.072 26.9432H27.6415C26.9905 26.9432 26.6627 26.5785 25.9543 25.7905C25.654 25.4565 25.2854 25.0464 24.7948 24.5559C23.3528 23.1654 22.7348 22.9851 22.3743 22.9851C21.8851 22.9851 21.7387 23.1237 21.7387 23.8182V25.9979C21.7387 26.5959 21.5476 26.9432 20.0026 26.9432C17.4276 26.9432 14.5978 25.3798 12.5893 22.4959C9.57664 18.2729 8.75263 15.0799 8.75263 14.4361C8.75263 14.0756 8.89153 13.7487 9.58597 13.7487Z" fill="#747474"/>
</g>
</svg>
