<svg width="101" height="40" viewBox="0 0 101 40" fill="none" xmlns="http://www.w3.org/2000/svg">
<path d="M0 6.0875C0 2.72547 2.72547 0 6.0875 0H33.9125C37.2745 0 40 2.72547 40 6.0875V33.9125C40 37.2745 37.2745 40 33.9125 40H6.0875C2.72547 40 0 37.2745 0 33.9125V6.0875Z" fill="#FF3000"/>
<path d="M30.129 33.125C28.3434 33.125 27.1133 32.1463 27.1133 29.1144V28.4623H29.0973V29.1148C29.0973 30.7267 29.5339 31.1679 30.129 31.1679C30.724 31.1679 31.141 30.7267 31.141 29.9782C31.141 29.0378 31.0021 28.52 29.6131 27.5412C27.9861 26.4092 27.2322 25.2002 27.2322 23.646C27.2322 21.6695 28.3034 20.4799 30.129 20.4799C31.3987 20.4799 33.0854 20.8638 33.0854 24.0872V24.8357H31.1014V24.0872C31.1014 22.8209 30.6848 22.3987 30.129 22.3987C29.5339 22.3987 29.2162 22.8209 29.2162 23.569C29.2162 24.3364 29.3947 24.9696 30.7836 26.006C32.5099 27.2916 33.125 28.3087 33.125 29.9779C33.125 31.6471 32.3311 33.125 30.129 33.125ZM23.363 33.125C21.5774 33.125 20.3473 32.2999 20.3473 29.1144V28.4623H22.3314V29.1148C22.3314 30.7267 22.7679 31.1679 23.363 31.1679C23.9581 31.1679 24.375 30.7267 24.375 29.9782C24.375 29.0378 24.2361 28.52 22.8472 27.5412C21.2201 26.4092 20.4662 25.2002 20.4662 23.646C20.4662 21.6695 21.5375 20.4799 23.363 20.4799C24.6327 20.4799 26.3194 20.8638 26.3194 24.0872V24.8357H24.3354V24.0872C24.3354 22.8209 23.9188 22.3987 23.363 22.3987C22.7679 22.3987 22.4502 22.8209 22.4502 23.569C22.4502 24.3364 22.6287 24.9696 24.0177 26.006C25.744 27.2916 26.359 28.3087 26.359 29.9779C26.359 31.6471 25.5655 33.125 23.363 33.125ZM30.129 19.5201C28.3434 19.5201 27.1133 18.5414 27.1133 15.5096V14.8574H29.0973V15.5099C29.0973 17.1218 29.5339 17.563 30.129 17.563C30.724 17.563 31.141 17.1218 31.141 16.3733C31.141 15.4329 31.0021 14.9151 29.6131 13.9364C27.9861 12.8043 27.2322 11.5953 27.2322 10.0411C27.2322 8.06467 28.3034 6.875 30.129 6.875C31.3987 6.875 33.0854 7.2589 33.0854 10.4823V11.2308H31.1014V10.4823C31.1014 9.21601 30.6848 8.79379 30.129 8.79379C29.5339 8.79379 29.2162 9.21601 29.2162 9.96412C29.2162 10.7316 29.3947 11.3647 30.7836 12.4011C32.5099 13.6867 33.125 14.7038 33.125 16.373C33.125 18.0422 32.3311 19.5201 30.129 19.5201ZM23.363 19.5201C21.5774 19.5201 20.3473 18.695 20.3473 15.5096V14.8574H22.3314V15.5099C22.3314 17.1218 22.7679 17.563 23.363 17.563C23.9581 17.563 24.375 17.1218 24.375 16.3733C24.375 15.4329 24.2361 14.9151 22.8472 13.9364C21.2201 12.8043 20.4662 11.5953 20.4662 10.0411C20.4662 8.06467 21.5375 6.875 23.363 6.875C24.6327 6.875 26.3194 7.2589 26.3194 10.4823V11.2308H24.3354V10.4823C24.3354 9.21601 23.9188 8.79379 23.363 8.79379C22.7679 8.79379 22.4502 9.21601 22.4502 9.96412C22.4502 10.7316 22.6287 11.3647 24.0177 12.4011C25.744 13.6867 26.359 14.7038 26.359 16.373C26.359 18.0422 25.5655 19.5201 23.363 19.5201ZM8.85939 28.4623H9.25635C10.1295 28.4623 10.5657 28.0401 10.5657 26.083V24.97C10.5657 23.0128 10.1291 22.5906 9.25635 22.5906H8.85939V28.4623ZM8.85939 32.933H6.87537V20.6715H9.25635C11.8358 20.6715 12.5501 22.0914 12.5501 24.778V26.2746C12.5501 28.9608 11.8358 30.3811 9.25635 30.3811H8.85939V32.933ZM9.25598 12.9386H8.85902V8.98574H9.25598C10.1488 8.98574 10.5653 9.27367 10.5653 10.6166V11.3074C10.5657 12.6507 10.1491 12.9386 9.25598 12.9386ZM12.9267 19.3285L11.3989 14.2243C12.1331 13.6295 12.5497 12.6507 12.5497 11.4421V10.4827C12.5497 8.23764 11.5181 7.06695 9.25598 7.06695H6.875V19.3285H8.85902V14.8574H9.11712C9.21636 14.8574 9.35522 14.8574 9.57332 14.8381L10.7638 19.3282L12.9267 19.3285ZM15.1884 28.4623L16.2004 22.5906H16.3593L17.3709 28.4623H15.1884ZM18.1252 32.933H20.1092L17.9067 20.6715H14.653L12.4309 32.933H14.4149L14.8711 30.3811H17.6886L18.1252 32.933ZM16.4782 19.5201C14.0376 19.5201 13.5814 17.7356 13.5814 15.5672V7.06695H15.645V15.7402C15.645 17.2561 15.9227 17.6013 16.4782 17.6013C17.0336 17.6013 17.3113 17.2561 17.3113 15.7402V7.06695H19.3749V15.5676C19.3749 17.7356 18.9187 19.5201 16.4782 19.5201Z" fill="white"/>
<path d="M48 27.8209V12.1826H54.8807V14.4177H50.4571V18.4168H51.8863C53.122 18.4168 54.0497 18.7445 54.6676 19.4C55.2854 20.0555 55.5953 21.0154 55.5953 22.2816V23.9579C55.5953 25.224 55.2854 26.184 54.6676 26.8394C54.0497 27.4949 53.122 27.8226 51.8863 27.8226H48V27.8209ZM51.8881 25.5858C52.2749 25.5858 52.5811 25.4819 52.8032 25.2724C53.0271 25.0646 53.1381 24.6778 53.1381 24.1101V22.1222C53.1381 21.5562 53.0271 21.1694 52.8032 20.9599C52.5794 20.7521 52.2749 20.6465 51.8881 20.6465H50.4589V25.584H51.8881V25.5858Z" fill="white"/>
<path d="M59.7752 27.8209H57.25V12.1826H59.4403V22.0792L60.3339 18.6388L62.3451 12.1826H65.0476V27.8209H62.8359V16.8067L61.8312 20.65L59.7752 27.8209Z" fill="white"/>
<path d="M71.5254 16.0242C71.5254 15.3239 71.409 14.8511 71.1798 14.6058C70.9487 14.3604 70.6389 14.2368 70.2521 14.2368C69.8652 14.2368 69.5518 14.3533 69.3136 14.5825C69.0754 14.8135 68.9555 15.2111 68.9555 15.777V17.0504H66.6989V15.8881C66.6989 14.6219 66.9998 13.6584 67.6033 12.994C68.2069 12.3313 69.1113 12 70.3183 12C71.5254 12 72.437 12.3385 73.0549 13.0172C73.6727 13.696 73.9825 14.6667 73.9825 15.9328V16.3358C73.9825 18.0031 73.4095 19.0759 72.2615 19.5523C72.8865 19.8209 73.3307 20.2346 73.5903 20.7916C73.85 21.3503 73.9808 22.0309 73.9808 22.835V24.0636C73.9808 25.3297 73.6709 26.3022 73.0531 26.9792C72.4352 27.6579 71.5218 27.9964 70.3166 27.9964C69.1095 27.9964 68.1979 27.6579 67.58 26.9792C66.9622 26.3022 66.6523 25.3297 66.6523 24.0636V22.3425H68.9752V24.2194C68.9752 24.7853 69.0898 25.1847 69.3208 25.4139C69.5518 25.645 69.8599 25.7596 70.2485 25.7596C70.6353 25.7596 70.9452 25.6396 71.1762 25.4014C71.4072 25.1632 71.5218 24.694 71.5218 23.9937V22.7652C71.5218 22.0363 71.3947 21.5223 71.1422 21.2232C70.8878 20.9259 70.4795 20.7755 69.9136 20.7755H69.3101V18.5404H70.0479C70.51 18.5404 70.8699 18.4222 71.1314 18.1822C71.3911 17.944 71.5218 17.5124 71.5218 16.8856V16.0242H71.5254Z" fill="white"/>
<path d="M78.0943 27.8209H75.6372V12.1826H78.0943V18.8842H80.8864V12.1826H83.3883V27.8209H80.8864V21.1193H78.0943V27.8209Z" fill="white"/>
<path d="M87.6329 18.7715H91.007V21.0065H87.6329V25.5859H91.8774V27.8191H85.1758V12.1809H91.8774V14.416H87.6329V18.7715Z" fill="white"/>
<path d="M100.524 21.9896V24.0671C100.524 25.3332 100.214 26.3057 99.596 26.9827C98.9782 27.6614 98.0648 27.9999 96.8595 27.9999C95.6542 27.9999 94.7409 27.6614 94.123 26.9827C93.5051 26.3057 93.1953 25.3332 93.1953 24.0671V15.9346C93.1953 14.6684 93.5051 13.6977 94.123 13.0189C94.7409 12.342 95.6542 12.0017 96.8595 12.0017C98.0648 12.0017 98.9782 12.3402 99.596 13.0189C100.214 13.6977 100.524 14.6684 100.524 15.9346V17.4532H98.2009V15.7769C98.2009 15.211 98.0845 14.8134 97.8553 14.5824C97.6242 14.3514 97.3144 14.2368 96.9276 14.2368C96.5407 14.2368 96.2309 14.3532 95.9999 14.5824C95.7688 14.8134 95.6542 15.211 95.6542 15.7769V24.2211C95.6542 24.787 95.7688 25.181 95.9999 25.4049C96.2309 25.6287 96.5389 25.7398 96.9276 25.7398C97.3144 25.7398 97.6242 25.6287 97.8553 25.4049C98.0863 25.181 98.2009 24.787 98.2009 24.2211V21.9878H100.524V21.9896Z" fill="white"/>
</svg>
