<svg width="40" height="40" viewBox="0 0 40 40" fill="none" xmlns="http://www.w3.org/2000/svg">
<path d="M0 6.0875C0 2.72547 2.72547 0 6.0875 0H33.9125C37.2745 0 40 2.72547 40 6.0875V33.9125C40 37.2745 37.2745 40 33.9125 40H6.0875C2.72547 40 0 37.2745 0 33.9125V6.0875Z" fill="#FF3000"/>
<path d="M30.129 33.125C28.3434 33.125 27.1133 32.1463 27.1133 29.1144V28.4623H29.0973V29.1148C29.0973 30.7267 29.5339 31.1679 30.129 31.1679C30.724 31.1679 31.141 30.7267 31.141 29.9782C31.141 29.0378 31.0021 28.52 29.6131 27.5412C27.9861 26.4092 27.2322 25.2002 27.2322 23.646C27.2322 21.6695 28.3034 20.4799 30.129 20.4799C31.3987 20.4799 33.0854 20.8638 33.0854 24.0872V24.8357H31.1014V24.0872C31.1014 22.8209 30.6848 22.3987 30.129 22.3987C29.5339 22.3987 29.2162 22.8209 29.2162 23.569C29.2162 24.3364 29.3947 24.9696 30.7836 26.006C32.5099 27.2916 33.125 28.3087 33.125 29.9779C33.125 31.6471 32.3311 33.125 30.129 33.125ZM23.363 33.125C21.5774 33.125 20.3473 32.2999 20.3473 29.1144V28.4623H22.3314V29.1148C22.3314 30.7267 22.7679 31.1679 23.363 31.1679C23.9581 31.1679 24.375 30.7267 24.375 29.9782C24.375 29.0378 24.2361 28.52 22.8472 27.5412C21.2201 26.4092 20.4662 25.2002 20.4662 23.646C20.4662 21.6695 21.5375 20.4799 23.363 20.4799C24.6327 20.4799 26.3194 20.8638 26.3194 24.0872V24.8357H24.3354V24.0872C24.3354 22.8209 23.9188 22.3987 23.363 22.3987C22.7679 22.3987 22.4502 22.8209 22.4502 23.569C22.4502 24.3364 22.6287 24.9696 24.0177 26.006C25.744 27.2916 26.359 28.3087 26.359 29.9779C26.359 31.6471 25.5655 33.125 23.363 33.125ZM30.129 19.5201C28.3434 19.5201 27.1133 18.5414 27.1133 15.5096V14.8574H29.0973V15.5099C29.0973 17.1218 29.5339 17.563 30.129 17.563C30.724 17.563 31.141 17.1218 31.141 16.3733C31.141 15.4329 31.0021 14.9151 29.6131 13.9364C27.9861 12.8043 27.2322 11.5953 27.2322 10.0411C27.2322 8.06467 28.3034 6.875 30.129 6.875C31.3987 6.875 33.0854 7.2589 33.0854 10.4823V11.2308H31.1014V10.4823C31.1014 9.21601 30.6848 8.79379 30.129 8.79379C29.5339 8.79379 29.2162 9.21601 29.2162 9.96412C29.2162 10.7316 29.3947 11.3647 30.7836 12.4011C32.5099 13.6868 33.125 14.7038 33.125 16.373C33.125 18.0422 32.3311 19.5201 30.129 19.5201ZM23.363 19.5201C21.5774 19.5201 20.3473 18.695 20.3473 15.5096V14.8574H22.3314V15.5099C22.3314 17.1218 22.7679 17.563 23.363 17.563C23.9581 17.563 24.375 17.1218 24.375 16.3733C24.375 15.4329 24.2361 14.9151 22.8472 13.9364C21.2201 12.8043 20.4662 11.5953 20.4662 10.0411C20.4662 8.06467 21.5375 6.875 23.363 6.875C24.6327 6.875 26.3194 7.2589 26.3194 10.4823V11.2308H24.3354V10.4823C24.3354 9.21601 23.9188 8.79379 23.363 8.79379C22.7679 8.79379 22.4502 9.21601 22.4502 9.96412C22.4502 10.7316 22.6287 11.3647 24.0177 12.4011C25.744 13.6868 26.359 14.7038 26.359 16.373C26.359 18.0422 25.5655 19.5201 23.363 19.5201ZM8.8594 28.4623H9.25635C10.1295 28.4623 10.5657 28.0401 10.5657 26.083V24.97C10.5657 23.0128 10.1291 22.5906 9.25635 22.5906H8.8594V28.4623ZM8.8594 32.933H6.87537V20.6715H9.25635C11.8358 20.6715 12.5501 22.0914 12.5501 24.778V26.2746C12.5501 28.9608 11.8358 30.3811 9.25635 30.3811H8.8594V32.933ZM9.25598 12.9386H8.85902V8.98574H9.25598C10.1488 8.98574 10.5653 9.27367 10.5653 10.6166V11.3074C10.5657 12.6507 10.1491 12.9386 9.25598 12.9386ZM12.9267 19.3285L11.3989 14.2243C12.1331 13.6295 12.5497 12.6507 12.5497 11.4421V10.4827C12.5497 8.23764 11.5181 7.06695 9.25598 7.06695H6.875V19.3285H8.85902V14.8574H9.11712C9.21636 14.8574 9.35522 14.8574 9.57332 14.8381L10.7638 19.3282L12.9267 19.3285ZM15.1884 28.4623L16.2004 22.5906H16.3593L17.3709 28.4623H15.1884ZM18.1252 32.933H20.1092L17.9067 20.6715H14.653L12.4309 32.933H14.4149L14.8711 30.3811H17.6886L18.1252 32.933ZM16.4782 19.5201C14.0376 19.5201 13.5814 17.7356 13.5814 15.5672V7.06695H15.645V15.7402C15.645 17.2561 15.9227 17.6013 16.4782 17.6013C17.0336 17.6013 17.3113 17.2561 17.3113 15.7402V7.06695H19.3749V15.5676C19.3749 17.7356 18.9187 19.5201 16.4782 19.5201Z" fill="white"/>
</svg>
