<?xml version="1.0" standalone="no"?>
  <!DOCTYPE svg PUBLIC "-//W3C//DTD SVG 1.1//EN" "http://www.w3.org/Graphics/SVG/1.1/DTD/svg11.dtd" >
  <svg>
  <metadata>
  Created by font-carrier
  </metadata>
  <defs>
  <font id="SuisseIntl" horiz-adv-x="2322" vert-adv-y="2322" >
    <font-face
      
      font-family="Suisse Intl"
      
      font-weight="400"
      
      font-stretch="normal"
      
      units-per-em="2048"
      
      ascent="1915"
      
      descent="-532"
      
    />
      <missing-glyph />

      

      
      <glyph glyph-name="uni21" unicode="&#x21;" d="M133 0L133 236L369 236L369 0L133 0M152 1036L152 1485L350 1485L350 1036L309 434L193 434L152 1036Z"  horiz-adv-x="501" vert-adv-y="2048"  />

      
      <glyph glyph-name="uni22" unicode="&#x22;" d="M55 1485L264 1485L223 993L96 993L55 1485M369 1485L578 1485L537 993L410 993L369 1485Z"  horiz-adv-x="632" vert-adv-y="2048"  />

      
      <glyph glyph-name="uni23" unicode="&#x23;" d="M45 455L66 600L354 600L403 956L113 956L133 1102L424 1102L477 1485L629 1485L575 1102L895 1102L948 1485L1100 1485L1047 1102L1321 1102L1300 956L1026 956L977 600L1253 600L1233 455L956 455L895 0L743 0L805 455L485 455L424 0L272 0L334 455L45 455M506 600L825 600L874 956L555 956L506 600Z"  horiz-adv-x="1363" vert-adv-y="2048"  />

      
      <glyph glyph-name="uni24" unicode="&#x24;" d="M68 471L260 471Q263 318 343 232Q423 146 539 131L539 686L494 698Q317 747 211.50 853Q106 959 106 1122Q106 1207 142.50 1279Q179 1351 240 1398.50Q301 1446 377.50 1474.50Q454 1503 539 1511L539 1661L651 1661L651 1511Q862 1496 983.50 1372Q1105 1248 1102 1047L909 1047Q906 1194 834 1268.50Q762 1343 651 1356L651 848L682 840Q737 825 778.50 811.50Q820 798 870 777Q920 756 956 733.50Q992 711 1028 678Q1064 645 1086.50 607Q1109 569 1123 518Q1137 467 1137 408Q1137 308 1098.50 227Q1060 146 992.50 93.50Q925 41 838.50 11Q752-19 651-25L651-199L539-199L539-25Q326-6 195.50 131Q65 268 68 471M299 1124Q299 1033 357.50 974Q416 915 537 879L539 877L539 1358Q439 1351 369 1291Q299 1231 299 1124M651 129Q777 137 860.50 201Q944 265 944 379Q944 443 925 488Q906 533 864 564.50Q822 596 774 615Q726 634 651 655L651 129Z"  horiz-adv-x="1202" vert-adv-y="2048"  />

      
      <glyph glyph-name="uni25" unicode="&#x25;" d="M162.50 753Q162.50 753 119.25 812Q76 871 76 1067Q76 1263 162.50 1381Q249 1499 410 1499Q574 1499 661 1381.50Q748 1264 748 1067Q748 870 661 752.50Q574 635 410 635Q249 635 162.50 753M231 1067Q231 914 277.50 831Q324 748 410 748Q499 748 545.50 831Q592 914 592 1067Q592 1222 545.50 1305.50Q499 1389 410 1389Q324 1389 277.50 1305Q231 1221 231 1067M408 0L1432 1485L1638 1485L614 0L408 0M1391 103.50Q1391 103.50 1348 162.25Q1305 221 1305 418Q1305 615 1391 732.50Q1477 850 1638 850Q1802 850 1889 732.50Q1976 615 1976 418Q1976 221 1889 103.50Q1802-14 1638-14Q1477-14 1391 103.50M1460 418Q1460 265 1506 181.50Q1552 98 1638 98Q1727 98 1774 181.50Q1821 265 1821 418Q1821 572 1774 655.50Q1727 739 1638 739Q1552 739 1506 655.50Q1460 572 1460 418Z"  horiz-adv-x="2043" vert-adv-y="2048"  />

      
      <glyph glyph-name="uni26" unicode="&#x26;" d="M57 408Q57 572 157 687.50Q257 803 432 862Q352 955 310 1035Q268 1115 268 1198Q268 1341 380 1427Q492 1513 668 1513Q724 1513 776.50 1503Q829 1493 879.50 1469Q930 1445 967 1409.50Q1004 1374 1026.50 1318.50Q1049 1263 1049 1194Q1049 1060 967 964Q885 868 741 809L1042 489Q1103 637 1114 805L1307 805Q1288 552 1174 352L1505 0L1237 0L1057 193Q850-27 551-27Q328-27 192.50 97Q57 221 57 408M256 416Q256 291 343 213Q430 135 551 135Q785 135 938 317L541 743Q256 641 256 416M467 1212Q467 1096 627 932L631 926Q740 965 805 1035Q870 1105 870 1192Q870 1278 815.50 1318Q761 1358 672 1358Q587 1358 527 1320.50Q467 1283 467 1212Z"  horiz-adv-x="1439" vert-adv-y="2048"  />

      
      <glyph glyph-name="uni27" unicode="&#x27;" d="M55 1485L264 1485L223 993L96 993L55 1485Z"  horiz-adv-x="319" vert-adv-y="2048"  />

      
      <glyph glyph-name="uni28" unicode="&#x28;" d="M91.50 271.50Q91.50 271.50 78.75 343.25Q66 415 66 563Q66 711 91.50 855Q117 999 160.50 1115.50Q204 1232 250 1322Q296 1412 348 1485L502 1485Q392 1306 325 1071.50Q258 837 258 563Q258 291 325 55.50Q392-180 502-358L348-358Q297-285 250.50-195Q204-105 160.50 11.50Q117 128 91.50 271.50Z"  horiz-adv-x="501" vert-adv-y="2048"  />

      
      <glyph glyph-name="uni29" unicode="&#x29;" d="M0-358Q110-180 177 55.50Q244 291 244 563Q244 837 177 1071.50Q110 1306 0 1485L154 1485Q206 1412 252 1322Q298 1232 341.50 1115.50Q385 999 410.50 855Q436 711 436 563Q436 415 410.50 271.50Q385 128 341.50 11.50Q298-105 251.50-195Q205-285 154-358L0-358Z"  horiz-adv-x="501" vert-adv-y="2048"  />

      
      <glyph glyph-name="uni2a" unicode="&#x2a;" d="M23 1214L63 1329L295 1241L295 1485L420 1485L420 1241L651 1329L698 1214L463 1133L604 934L510 862L358 1069L219 862L111 932L254 1133L23 1214Z"  horiz-adv-x="720" vert-adv-y="2048"  />

      
      <glyph glyph-name="uni2b" unicode="&#x2b;" d="M139 463L139 639L602 639L602 1090L788 1090L788 639L1251 639L1251 463L788 463L788 0L602 0L602 463L139 463Z"  horiz-adv-x="1388" vert-adv-y="2048"  />

      
      <glyph glyph-name="uni2c" unicode="&#x2c;" d="M125-285L233 0L133 0L133 236L369 236L369-16L244-285L125-285Z"  horiz-adv-x="501" vert-adv-y="2048"  />

      
      <glyph glyph-name="uni2d" unicode="&#x2d;" d="M88 473L88 649L739 649L739 473L88 473Z"  horiz-adv-x="829" vert-adv-y="2048"  />

      
      <glyph glyph-name="uni2e" unicode="&#x2e;" d="M133 0L133 236L369 236L369 0L133 0Z"  horiz-adv-x="501" vert-adv-y="2048"  />

      
      <glyph glyph-name="uni2f" unicode="&#x2f;" d="M0 0L584 1485L772 1485L186 0L0 0Z"  horiz-adv-x="772" vert-adv-y="2048"  />

      
      <glyph glyph-name="uni30" unicode="&#x30;" d="M98 743Q98 981 159 1150.50Q220 1320 351 1415.50Q482 1511 676 1511Q822 1511 932.50 1457.50Q1043 1404 1113 1303Q1183 1202 1218 1061.50Q1253 921 1253 743Q1253 504 1192 334Q1131 164 1000.50 68.50Q870-27 676-27Q530-27 419.50 27Q309 81 238.50 182Q168 283 133 423.50Q98 564 98 743M297 743Q297 439 397 284Q497 129 676 129Q855 129 955 284Q1055 439 1055 743Q1055 1046 955 1201Q855 1356 676 1356Q497 1356 397 1201Q297 1046 297 743Z"  horiz-adv-x="1353" vert-adv-y="2048"  />

      
      <glyph glyph-name="uni31" unicode="&#x31;" d="M25 1161L25 1288Q197 1294 283.50 1332Q370 1370 428 1485L555 1485L555 0L369 0L369 1161L25 1161Z"  horiz-adv-x="753" vert-adv-y="2048"  />

      
      <glyph glyph-name="uni32" unicode="&#x32;" d="M61 0L61 168Q272 324 414.50 442Q557 560 671 678Q785 796 839 899Q893 1002 893 1098Q893 1215 818.50 1285.50Q744 1356 614 1356Q551 1356 496.50 1338Q442 1320 396.50 1282Q351 1244 323.50 1177.50Q296 1111 295 1022L102 1022Q99 1243 240.50 1377Q382 1511 618 1511Q829 1511 959.50 1408Q1090 1305 1090 1122Q1090 1038 1062.50 954Q1035 870 980.50 789Q926 708 859.50 632.50Q793 557 699.50 475.50Q606 394 518 325Q430 256 315 174L1130 174L1130 0L61 0Z"  horiz-adv-x="1208" vert-adv-y="2048"  />

      
      <glyph glyph-name="uni33" unicode="&#x33;" d="M47 438L240 438Q256 296 341.50 212.50Q427 129 578 129Q729 129 821 205Q913 281 913 416Q913 478 891 527Q869 576 831 607.50Q793 639 738 660Q683 681 621 689.50Q559 698 485 698L455 698L455 868L479 868Q677 868 775.50 927Q874 986 874 1114Q874 1229 792.50 1292.50Q711 1356 586 1356Q441 1356 357.50 1277Q274 1198 262 1067L70 1067Q88 1268 225 1389.50Q362 1511 590 1511Q690 1511 774.50 1490Q859 1469 926.50 1426Q994 1383 1032.50 1308.50Q1071 1234 1071 1135Q1071 1020 1008 929Q945 838 829 791Q1112 701 1112 418Q1112 309 1068 222.50Q1024 136 949 82.50Q874 29 778.50 1Q683-27 575-27Q449-27 349.50 10.50Q250 48 187.50 113Q125 178 90 260Q55 342 47 438Z"  horiz-adv-x="1202" vert-adv-y="2048"  />

      
      <glyph glyph-name="uni34" unicode="&#x34;" d="M35 367L35 543L770 1485L961 1485L961 543L1233 543L1233 367L961 367L961 0L772 0L772 367L35 367M242 543L772 543L772 1229L242 543Z"  horiz-adv-x="1277" vert-adv-y="2048"  />

      
      <glyph glyph-name="uni35" unicode="&#x35;" d="M90 430L283 430Q330 129 618 129Q758 129 854 225.50Q950 322 950 487Q950 576 921 645.50Q892 715 843.50 756.50Q795 798 737 819Q679 840 616 840Q510 840 434.50 790Q359 740 330 676L143 686L240 1485L1092 1485L1092 1311L391 1311L340 889Q455 1001 659 1001Q757 1001 845 966.50Q933 932 1000.50 868.50Q1068 805 1107.50 706.50Q1147 608 1147 489Q1147 366 1103.50 266Q1060 166 986 103Q912 40 817.50 6.50Q723-27 618-27Q493-27 395 10Q297 47 235 112Q173 177 137 256.50Q101 336 90 430Z"  horiz-adv-x="1243" vert-adv-y="2048"  />

      
      <glyph glyph-name="uni36" unicode="&#x36;" d="M98 690Q98 821 116.50 937Q135 1053 178.50 1160Q222 1267 287.50 1343.50Q353 1420 453 1465.50Q553 1511 678 1511Q783 1511 867.50 1480Q952 1449 1006 1396Q1060 1343 1092.50 1279Q1125 1215 1137 1141L934 1141Q915 1241 841.50 1298.50Q768 1356 655 1356Q487 1356 393 1201Q299 1046 291 782Q346 876 444 932.50Q542 989 682 989Q890 989 1025.50 848Q1161 707 1161 485Q1161 346 1097.50 230Q1034 114 913.50 43.50Q793-27 639-27Q365-27 231.50 156.50Q98 340 98 690M313 475Q313 320 401.50 224.50Q490 129 637 129Q780 129 871.50 226Q963 323 963 475Q963 628 872 727.50Q781 827 639 827Q494 827 403.50 728Q313 629 313 475Z"  horiz-adv-x="1259" vert-adv-y="2048"  />

      
      <glyph glyph-name="uni37" unicode="&#x37;" d="M23 1311L23 1485L1051 1485L1051 1311Q774 1087 611 750Q448 413 422 0L197 0Q221 394 387.50 731.50Q554 1069 834 1311L23 1311Z"  horiz-adv-x="1050" vert-adv-y="2048"  />

      
      <glyph glyph-name="uni38" unicode="&#x38;" d="M98 418Q98 472 110.50 523Q123 574 150.50 625Q178 676 229 719.50Q280 763 350 791Q280 829 232.50 888Q185 947 165 1008Q145 1069 145 1133Q145 1300 280 1405.50Q415 1511 641 1511Q865 1511 1001 1405Q1137 1299 1137 1133Q1137 1069 1117 1008Q1097 947 1049.50 888Q1002 829 932 791Q1001 763 1052 719.50Q1103 676 1130 625Q1157 574 1169.50 523Q1182 472 1182 418Q1182 280 1110 178Q1038 76 916.50 24.50Q795-27 641-27Q486-27 364 24.50Q242 76 170 178Q98 280 98 418M297 418Q297 287 390 208Q483 129 641 129Q797 129 891 208Q985 287 985 418Q985 549 891 631Q797 713 641 713Q484 713 390.50 631.50Q297 550 297 418M332 1110Q332 996 417.50 923Q503 850 641 850Q778 850 863 923Q948 996 948 1110Q948 1220 863.50 1288Q779 1356 641 1356Q502 1356 417 1288Q332 1220 332 1110Z"  horiz-adv-x="1282" vert-adv-y="2048"  />

      
      <glyph glyph-name="uni39" unicode="&#x39;" d="M86 1001Q86 1139 149.50 1254.50Q213 1370 333.50 1440.50Q454 1511 608 1511Q1149 1511 1149 795Q1149 664 1130 547.50Q1111 431 1067.50 324.50Q1024 218 958.50 141Q893 64 793 18.50Q693-27 569-27Q464-27 380 4Q296 35 242 88.50Q188 142 155.50 206Q123 270 111 344L313 344Q332 243 404.50 186Q477 129 590 129Q758 129 853 283.50Q948 438 956 702Q901 608 802 552Q703 496 563 496Q356 496 221 637Q86 778 86 1001M375.50 1259.50Q375.50 1259.50 330.25 1211.25Q285 1163 285 1010Q285 857 374.50 758Q464 659 608 659Q753 659 842.50 757.50Q932 856 932 1010Q932 1165 844.50 1260.50Q757 1356 610 1356Q466 1356 375.50 1259.50Z"  horiz-adv-x="1249" vert-adv-y="2048"  />

      
      <glyph glyph-name="uni3a" unicode="&#x3a;" d="M133 0L133 236L369 236L369 0L133 0M133 866L133 1102L369 1102L369 866L133 866Z"  horiz-adv-x="501" vert-adv-y="2048"  />

      
      <glyph glyph-name="uni3b" unicode="&#x3b;" d="M125-285L233 0L133 0L133 236L369 236L369-16L244-285L125-285M133 866L133 1102L369 1102L369 866L133 866Z"  horiz-adv-x="501" vert-adv-y="2048"  />

      
      <glyph glyph-name="uni3c" unicode="&#x3c;" d="M160 469L160 629L1210 1094L1210 893L393 549L1210 211L1210 12L160 469Z"  horiz-adv-x="1388" vert-adv-y="2048"  />

      
      <glyph glyph-name="uni3d" unicode="&#x3d;" d="M182 266L182 442L1208 442L1208 266L182 266M182 680L182 858L1208 858L1208 680L182 680Z"  horiz-adv-x="1388" vert-adv-y="2048"  />

      
      <glyph glyph-name="uni3e" unicode="&#x3e;" d="M180 12L180 211L997 549L180 893L180 1094L1231 629L1231 469L180 12Z"  horiz-adv-x="1388" vert-adv-y="2048"  />

      
      <glyph glyph-name="uni3f" unicode="&#x3f;" d="M27 1071Q28 1269 168 1390Q308 1511 528 1511Q617 1511 698 1489Q779 1467 845.50 1424.50Q912 1382 951.50 1311.50Q991 1241 991 1151Q991 908 715 729Q611 662 577 620Q543 578 543 498L543 434L352 434L352 504Q352 568 366.50 616Q381 664 416.50 706.50Q452 749 493.50 782Q535 815 606 860Q697 918 747 984.50Q797 1051 797 1143Q797 1239 720.50 1297.50Q644 1356 524 1356Q458 1356 405 1338Q352 1320 318 1292Q284 1264 260.50 1225.50Q237 1187 226.50 1149Q216 1111 213 1071L27 1071M334 0L334 236L569 236L569 0L334 0Z"  horiz-adv-x="1021" vert-adv-y="2048"  />

      
      <glyph glyph-name="uni40" unicode="&#x40;" d="M94 715Q94 877 156 1020Q218 1163 324.50 1265Q431 1367 580.50 1426Q730 1485 899 1485Q1050 1485 1179 1445Q1308 1405 1408 1327Q1508 1249 1565 1122Q1622 995 1622 831Q1622 710 1591 610Q1560 510 1508.50 446Q1457 382 1392 347.50Q1327 313 1257 313Q1172 313 1112 363Q1052 413 1040 502Q945 319 729 319Q599 319 512.50 412Q426 505 426 686Q426 776 455.50 861Q485 946 537.50 1013Q590 1080 670.50 1120.50Q751 1161 846 1161Q929 1161 991 1119.50Q1053 1078 1081 1006L1098 1126L1243 1126L1184 680Q1153 461 1270 461Q1351 461 1407.50 559.50Q1464 658 1464 823Q1464 1072 1309 1206.50Q1154 1341 895 1341Q709 1341 563 1258.50Q417 1176 337.50 1032Q258 888 258 709Q258 542 324 410.50Q390 279 517.50 203Q645 127 815 127Q1037 127 1212 215L1270 74Q1060-27 815-27Q656-27 521 29.50Q386 86 292.50 184Q199 282 146.50 419.50Q94 557 94 715M604 684Q604 578 647.50 523.50Q691 469 774 469Q891 469 958.50 567Q1026 665 1026 807Q1026 902 979.50 955Q933 1008 848 1008Q738 1008 671 912.50Q604 817 604 684Z"  horiz-adv-x="1738" vert-adv-y="2048"  />

      
      <glyph glyph-name="uni41" unicode="&#x41;" d="M0 0L551 1485L793 1485L1352 0L1126 0L1010 322L328 322L213 0L0 0M391 500L944 500L666 1274L391 500Z"  horiz-adv-x="1351" vert-adv-y="2048"  />

      
      <glyph glyph-name="uni42" unicode="&#x42;" d="M176 0L176 1485L711 1485Q799 1485 872 1475.50Q945 1466 1013.50 1440.50Q1082 1415 1129 1375Q1176 1335 1204.50 1269.50Q1233 1204 1233 1118Q1233 1012 1189 923.50Q1145 835 1069 791Q1294 697 1294 438Q1294 323 1253 237Q1212 151 1138.50 100Q1065 49 971 24.50Q877 0 762 0L176 0M385 176L764 176Q921 176 1000 242.50Q1079 309 1079 436Q1079 566 999.50 625Q920 684 752 684L385 684L385 176M385 850L743 850Q1022 850 1022 1090Q1022 1200 947.50 1254.50Q873 1309 743 1309L385 1309L385 850Z"  horiz-adv-x="1376" vert-adv-y="2048"  />

      
      <glyph glyph-name="uni43" unicode="&#x43;" d="M104 745Q104 1092 292.50 1301.50Q481 1511 795 1511Q1029 1511 1198 1378.50Q1367 1246 1413 1012L1210 1012Q1175 1157 1065 1246Q955 1335 784 1335Q580 1335 448.50 1179.50Q317 1024 317 745Q317 469 448.50 309.50Q580 150 791 150Q962 150 1072 237.50Q1182 325 1219 473L1421 473Q1373 233 1199.50 103Q1026-27 778-27Q569-27 415 72Q261 171 182.50 344.50Q104 518 104 745Z"  horiz-adv-x="1486" vert-adv-y="2048"  />

      
      <glyph glyph-name="uni44" unicode="&#x44;" d="M176 0L176 1485L582 1485Q728 1485 847.50 1462.50Q967 1440 1070 1386.50Q1173 1333 1242.50 1249Q1312 1165 1351.50 1037Q1391 909 1391 743Q1391 576 1351.50 448Q1312 320 1242.50 236Q1173 152 1070 98.50Q967 45 848 22.50Q729 0 582 0L176 0M385 176L575 176Q638 176 689.50 180Q741 184 798.50 193.50Q856 203 901 222Q946 241 991 269.50Q1036 298 1068.50 341.50Q1101 385 1126.50 441Q1152 497 1165 573.50Q1178 650 1178 743Q1178 848 1160 932.50Q1142 1017 1112.50 1075.50Q1083 1134 1037 1177Q991 1220 942 1245Q893 1270 828.50 1285Q764 1300 706 1304.50Q648 1309 575 1309L385 1309L385 176Z"  horiz-adv-x="1495" vert-adv-y="2048"  />

      
      <glyph glyph-name="uni45" unicode="&#x45;" d="M176 0L176 1485L1184 1485L1184 1305L385 1305L385 854L1137 854L1137 674L385 674L385 180L1184 180L1184 0L176 0Z"  horiz-adv-x="1255" vert-adv-y="2048"  />

      
      <glyph glyph-name="uni46" unicode="&#x46;" d="M176 0L176 1485L1141 1485L1141 1305L385 1305L385 854L1098 854L1098 674L385 674L385 0L176 0Z"  horiz-adv-x="1146" vert-adv-y="2048"  />

      
      <glyph glyph-name="uni47" unicode="&#x47;" d="M104 745Q104 1091 293 1301Q482 1511 795 1511Q1028 1511 1196 1388.50Q1364 1266 1409 1053L1206 1053Q1167 1184 1061.50 1259.50Q956 1335 784 1335Q580 1335 448.50 1179.50Q317 1024 317 745Q317 468 446 309Q575 150 784 150Q848 150 906.50 160.50Q965 171 1024 199Q1083 227 1126 269.50Q1169 312 1196 381Q1223 450 1223 539L1223 578L829 578L829 758L1419 758L1419 0L1255 0L1245 186Q1110-27 776-27Q566-27 413 72Q260 171 182 344.50Q104 518 104 745Z"  horiz-adv-x="1576" vert-adv-y="2048"  />

      
      <glyph glyph-name="uni48" unicode="&#x48;" d="M176 0L176 1485L385 1485L385 854L1165 854L1165 1485L1374 1485L1374 0L1165 0L1165 674L385 674L385 0L176 0Z"  horiz-adv-x="1550" vert-adv-y="2048"  />

      
      <glyph glyph-name="uni49" unicode="&#x49;" d="M176 0L176 1485L385 1485L385 0L176 0Z"  horiz-adv-x="561" vert-adv-y="2048"  />

      
      <glyph glyph-name="uni4a" unicode="&#x4a;" d="M23 459L217 459Q217 310 294 226.50Q371 143 487 143Q537 143 579 157.50Q621 172 660.50 206.50Q700 241 722.50 309Q745 377 745 473L745 1485L954 1485L954 471Q954 230 831 101.50Q708-27 487-27Q267-27 145 97Q23 221 23 459Z"  horiz-adv-x="1130" vert-adv-y="2048"  />

      
      <glyph glyph-name="uni4b" unicode="&#x4b;" d="M176 0L176 1485L385 1485L385 737L1055 1485L1315 1485L760 879L1378 0L1128 0L618 725L385 467L385 0L176 0Z"  horiz-adv-x="1363" vert-adv-y="2048"  />

      
      <glyph glyph-name="uni4c" unicode="&#x4c;" d="M176 0L176 1485L385 1485L385 180L1169 180L1169 0L176 0Z"  horiz-adv-x="1169" vert-adv-y="2048"  />

      
      <glyph glyph-name="uni4d" unicode="&#x4d;" d="M176 0L176 1485L526 1485L905 248L1284 1485L1634 1485L1634 0L1425 0L1425 1294L1016 0L795 0L385 1294L385 0L176 0Z"  horiz-adv-x="1810" vert-adv-y="2048"  />

      
      <glyph glyph-name="uni4e" unicode="&#x4e;" d="M176 0L176 1485L483 1485L1161 221L1161 1485L1370 1485L1370 0L1065 0L385 1268L385 0L176 0Z"  horiz-adv-x="1546" vert-adv-y="2048"  />

      
      <glyph glyph-name="uni4f" unicode="&#x4f;" d="M188 345Q188 345 146 432Q104 519 104 743Q104 967 188 1140.50Q272 1314 431.50 1412.50Q591 1511 801 1511Q1011 1511 1170 1412.50Q1329 1314 1413 1140.50Q1497 967 1497 743Q1497 519 1413 345Q1329 171 1170 72Q1011-27 801-27Q591-27 431.50 72Q272 171 188 345M454 1178Q454 1178 385.50 1099.50Q317 1021 317 743Q317 465 454 307.50Q591 150 801 150Q1011 150 1147.50 307.50Q1284 465 1284 743Q1284 1021 1147.50 1178Q1011 1335 801 1335Q591 1335 454 1178Z"  horiz-adv-x="1601" vert-adv-y="2048"  />

      
      <glyph glyph-name="uni50" unicode="&#x50;" d="M176 0L176 1485L641 1485Q756 1485 844.50 1473.50Q933 1462 1013.50 1432Q1094 1402 1145.50 1352.50Q1197 1303 1227 1223.50Q1257 1144 1257 1036Q1257 928 1227 848Q1197 768 1145.50 718.50Q1094 669 1013.50 639.50Q933 610 845 599Q757 588 641 588L385 588L385 0L176 0M385 770L657 770Q732 770 782 774Q832 778 886 793.50Q940 809 971.50 837Q1003 865 1023.50 915Q1044 965 1044 1036Q1044 1107 1023.50 1157.50Q1003 1208 971 1237Q939 1266 886 1282.50Q833 1299 781.50 1304Q730 1309 657 1309L385 1309L385 770Z"  horiz-adv-x="1302" vert-adv-y="2048"  />

      
      <glyph glyph-name="uni51" unicode="&#x51;" d="M188 345Q188 345 146 432Q104 519 104 743Q104 967 188 1140.50Q272 1314 431.50 1412.50Q591 1511 801 1511Q1011 1511 1170 1412.50Q1329 1314 1413 1140.50Q1497 967 1497 743Q1497 415 1321 205L1497 29L1370-98L1188 84Q1025-27 801-27Q591-27 431.50 72Q272 171 188 345M454 1178Q454 1178 385.50 1099.50Q317 1021 317 743Q317 465 454 307.50Q591 150 801 150Q939 150 1051 221L913 358L1040 487L1178 348Q1284 501 1284 743Q1284 1021 1147.50 1178Q1011 1335 801 1335Q591 1335 454 1178Z"  horiz-adv-x="1601" vert-adv-y="2048"  />

      
      <glyph glyph-name="uni52" unicode="&#x52;" d="M176 0L176 1485L647 1485Q743 1485 819 1478Q895 1471 968 1453.50Q1041 1436 1093 1404.50Q1145 1373 1185.50 1326.50Q1226 1280 1246 1212Q1266 1144 1266 1057Q1266 887 1190.50 792.50Q1115 698 971 659L1315 0L1081 0L760 627Q723 625 647 625L385 625L385 0L176 0M385 801L664 801Q738 801 788.50 805Q839 809 893 824Q947 839 978.50 865.50Q1010 892 1030.50 939Q1051 986 1051 1053Q1051 1120 1030.50 1167.50Q1010 1215 978 1242Q946 1269 893 1284.50Q840 1300 788.50 1304.50Q737 1309 664 1309L385 1309L385 801Z"  horiz-adv-x="1390" vert-adv-y="2048"  />

      
      <glyph glyph-name="uni53" unicode="&#x53;" d="M66 461L270 461Q299 308 404 229Q509 150 680 150Q841 150 933.50 219Q1026 288 1026 399Q1026 508 944 568Q862 628 707 662L522 700Q458 714 401.50 735.50Q345 757 291.50 791Q238 825 199.50 868.50Q161 912 138 973Q115 1034 115 1106Q115 1207 164.50 1287.50Q214 1368 294 1415Q374 1462 465.50 1486.50Q557 1511 651 1511Q754 1511 844 1487.50Q934 1464 1010.50 1416.50Q1087 1369 1140 1289.50Q1193 1210 1214 1106L1012 1106Q988 1188 926.50 1241Q865 1294 794.50 1314.50Q724 1335 643 1335Q595 1335 544.50 1324Q494 1313 443.50 1289.50Q393 1266 360.50 1221.50Q328 1177 328 1118Q328 946 569 891L741 852Q797 840 841 828Q885 816 939 796.50Q993 777 1033.50 754.50Q1074 732 1115 698.50Q1156 665 1182 626Q1208 587 1224.50 533.50Q1241 480 1241 418Q1241 333 1210.50 260.50Q1180 188 1127 135.50Q1074 83 1002.50 46Q931 9 848-9Q765-27 676-27Q417-27 256.50 104Q96 235 66 461Z"  horiz-adv-x="1312" vert-adv-y="2048"  />

      
      <glyph glyph-name="uni54" unicode="&#x54;" d="M0 1305L0 1485L1176 1485L1176 1305L692 1305L692 0L483 0L483 1305L0 1305Z"  horiz-adv-x="1175" vert-adv-y="2048"  />

      
      <glyph glyph-name="uni55" unicode="&#x55;" d="M154 604L154 1485L362 1485L362 582Q362 360 450.50 257Q539 154 745 154Q953 154 1044 265.50Q1135 377 1135 604L1135 1485L1343 1485L1343 621Q1343 289 1203 131Q1063-27 745-27Q588-27 478.50 6.50Q369 40 295.50 115Q222 190 188 310Q154 430 154 604Z"  horiz-adv-x="1497" vert-adv-y="2048"  />

      
      <glyph glyph-name="uni56" unicode="&#x56;" d="M23 1485L252 1485L664 215L1067 1485L1286 1485L782 0L532 0L23 1485Z"  horiz-adv-x="1306" vert-adv-y="2048"  />

      
      <glyph glyph-name="uni57" unicode="&#x57;" d="M33 1485L262 1485L549 238L823 1485L1069 1485L1362 238L1636 1485L1855 1485L1485 0L1231 0L944 1221L664 0L410 0L33 1485Z"  horiz-adv-x="1888" vert-adv-y="2048"  />

      
      <glyph glyph-name="uni58" unicode="&#x58;" d="M0 0L551 764L37 1485L285 1485L676 936L1071 1485L1307 1485L793 772L1343 0L1098 0L668 600L236 0L0 0Z"  horiz-adv-x="1343" vert-adv-y="2048"  />

      
      <glyph glyph-name="uni59" unicode="&#x59;" d="M0 1485L229 1485L635 760L1049 1485L1278 1485L733 575L733 0L524 0L524 580L0 1485Z"  horiz-adv-x="1277" vert-adv-y="2048"  />

      
      <glyph glyph-name="uni5a" unicode="&#x5a;" d="M84 0L84 180L958 1305L152 1305L152 1485L1204 1485L1204 1305L332 180L1237 180L1237 0L84 0Z"  horiz-adv-x="1296" vert-adv-y="2048"  />

      
      <glyph glyph-name="uni5b" unicode="&#x5b;" d="M166-358L166 1485L627 1485L627 1327L346 1327L346-201L627-201L627-358L166-358Z"  horiz-adv-x="647" vert-adv-y="2048"  />

      
      <glyph glyph-name="uni5c" unicode="&#x5c;" d="M0 1485L186 1485L772 0L584 0L0 1485Z"  horiz-adv-x="772" vert-adv-y="2048"  />

      
      <glyph glyph-name="uni5d" unicode="&#x5d;" d="M20-201L301-201L301 1327L20 1327L20 1485L481 1485L481-358L20-358L20-201Z"  horiz-adv-x="647" vert-adv-y="2048"  />

      
      <glyph glyph-name="uni5e" unicode="&#x5e;" d="M-45 692L367 1485L526 1485L946 692L745 692L446 1251L154 692L-45 692Z"  horiz-adv-x="903" vert-adv-y="2048"  />

      
      <glyph glyph-name="uni5f" unicode="&#x5f;" d="M66-2L872-2L872-178L66-178L66-2Z"  horiz-adv-x="937" vert-adv-y="2048"  />

      
      <glyph glyph-name="uni60" unicode="&#x60;" d="M45 1485L283 1485L469 1247L311 1247L45 1485Z"  horiz-adv-x="514" vert-adv-y="2048"  />

      
      <glyph glyph-name="uni61" unicode="&#x61;" d="M84 287Q84 352 107 404Q130 456 177.50 494.50Q225 533 286 562Q347 591 435.50 613Q524 635 615.50 649.50Q707 664 829 678L829 709Q829 854 760.50 913.50Q692 973 573 973Q448 973 380.50 915.50Q313 858 307 754L115 754Q124 869 191 954.50Q258 1040 358 1082Q458 1124 575 1124Q805 1124 911 1016.50Q1017 909 1016 674L1014 416Q1014 393 1014 372Q1014 146 1042 0L854 0Q843 78 840 162Q728-27 463-27Q302-27 193 57.50Q84 142 84 287M291 295Q291 216 348 168.50Q405 121 504 121Q574 121 631.50 139Q689 157 738.50 197Q788 237 816 312.50Q844 388 844 494L844 530Q752 520 685 511Q618 502 551 488.50Q484 475 440 458Q396 441 360 418Q324 395 307.50 364Q291 333 291 295Z"  horiz-adv-x="1144" vert-adv-y="2048"  />

      
      <glyph glyph-name="uni62" unicode="&#x62;" d="M147 0L147 1485L334 1485L334 928Q446 1120 694 1120Q895 1120 1027 965.50Q1159 811 1159 547Q1159 413 1123 303.50Q1087 194 1024 122.50Q961 51 876.50 12Q792-27 694-27Q446-27 334 166L334 0L147 0M352.50 733.50Q352.50 733.50 339.25 692.75Q326 652 326 547Q326 442 352.50 360.50Q379 279 424.50 230.50Q470 182 526.50 157.50Q583 133 647 133Q796 133 876 241.50Q956 350 956 547Q956 744 876 852.50Q796 961 647 961Q583 961 526.50 936.50Q470 912 424.50 863.50Q379 815 352.50 733.50Z"  horiz-adv-x="1230" vert-adv-y="2048"  />

      
      <glyph glyph-name="uni63" unicode="&#x63;" d="M72 549Q72 714 133.50 842.50Q195 971 315.50 1045.50Q436 1120 598 1120Q696 1120 779.50 1086Q863 1052 918.50 996Q974 940 1008.50 872.50Q1043 805 1053 733L864 733Q843 834 769.50 895Q696 956 586 956Q449 956 361.50 852.50Q274 749 274 551Q274 350 362.50 243.50Q451 137 586 137Q701 137 775.50 200.50Q850 264 872 358L1065 358Q1036 196 903 84.50Q770-27 580-27Q343-27 207.50 132.50Q72 292 72 549Z"  horiz-adv-x="1128" vert-adv-y="2048"  />

      
      <glyph glyph-name="uni64" unicode="&#x64;" d="M72 547Q72 811 204 965.50Q336 1120 537 1120Q785 1120 897 928L897 1485L1083 1485L1083 0L897 0L897 166Q785-27 537-27Q439-27 354.50 12Q270 51 207 122.50Q144 194 108 303.50Q72 413 72 547M354.50 852.50Q354.50 852.50 314.25 798.25Q274 744 274 547Q274 350 354.50 241.50Q435 133 584 133Q648 133 704.50 157.50Q761 182 806.50 230.50Q852 279 878.50 360.50Q905 442 905 547Q905 652 878.50 733.50Q852 815 806.50 863.50Q761 912 704.50 936.50Q648 961 584 961Q435 961 354.50 852.50Z"  horiz-adv-x="1230" vert-adv-y="2048"  />

      
      <glyph glyph-name="uni65" unicode="&#x65;" d="M72 549Q72 807 220 963.50Q368 1120 600 1120Q766 1120 887 1034Q1008 948 1064 806Q1110 690 1110 553Q1110 521 1108 489L274 489Q274 329 368.50 233Q463 137 602 137Q724 137 793.50 183.50Q863 230 901 319L1094 319Q1053 167 927 70Q801-27 606-27Q477-27 374.50 17Q272 61 206.50 139Q141 217 106.50 321.50Q72 426 72 549M276 649L911 649Q908 776 825 868.50Q742 961 600 961Q457 961 369.50 878.50Q282 796 276 649Z"  horiz-adv-x="1179" vert-adv-y="2048"  />

      
      <glyph glyph-name="uni66" unicode="&#x66;" d="M41 952L41 1102L195 1102L195 1182Q195 1273 206 1327Q217 1381 250 1418.50Q283 1456 340 1470.50Q397 1485 492 1485L588 1485L588 1329L496 1329Q423 1329 402 1304Q381 1279 381 1192L381 1102L588 1102L588 952L381 952L381 0L195 0L195 952L41 952Z"  horiz-adv-x="641" vert-adv-y="2048"  />

      
      <glyph glyph-name="uni67" unicode="&#x67;" d="M74 569Q74 827 200.50 973.50Q327 1120 528 1120Q767 1120 879 928L879 1102L1065 1102L1065 147Q1065-11 1039-96.50Q1013-182 961-240Q901-309 802-347Q703-385 580-385Q390-385 271.50-298.50Q153-212 127-47L326-47Q347-130 404.50-175.50Q462-221 582-221Q731-221 807-139Q843-101 861-50Q879 1 879 104L879 209Q768 18 528 18Q327 18 200.50 164Q74 310 74 569M276 569Q276 378 351.50 277Q427 176 575 176Q639 176 694 198.50Q749 221 793 266.50Q837 312 862 389.50Q887 467 887 569Q887 766 798.50 863.50Q710 961 575 961Q427 961 351.50 860Q276 759 276 569Z"  horiz-adv-x="1212" vert-adv-y="2048"  />

      
      <glyph glyph-name="uni68" unicode="&#x68;" d="M147 0L147 1485L334 1485L334 936Q445 1120 690 1120Q1053 1120 1053 696L1053 0L866 0L866 641Q866 698 861.50 740Q857 782 842.50 825.50Q828 869 802 896Q776 923 731.50 940.50Q687 958 625 958Q488 958 411 865.50Q334 773 334 598L334 0L147 0Z"  horiz-adv-x="1183" vert-adv-y="2048"  />

      
      <glyph glyph-name="uni69" unicode="&#x69;" d="M147 0L147 1102L334 1102L334 0L147 0M147 1260L147 1485L334 1485L334 1260L147 1260Z"  horiz-adv-x="481" vert-adv-y="2048"  />

      
      <glyph glyph-name="uni6a" unicode="&#x6a;" d="M-20-203L33-203Q104-203 125.50-175Q147-147 147-59L147 1102L334 1102L334-55Q334-145 323.50-199.50Q313-254 283.50-291.50Q254-329 204.50-343.50Q155-358 74-358L-20-358L-20-203M147 1260L147 1485L334 1485L334 1260L147 1260Z"  horiz-adv-x="481" vert-adv-y="2048"  />

      
      <glyph glyph-name="uni6b" unicode="&#x6b;" d="M147 0L147 1485L334 1485L334 606L778 1102L1008 1102L618 680L1042 0L823 0L494 543L334 369L334 0L147 0Z"  horiz-adv-x="1034" vert-adv-y="2048"  />

      
      <glyph glyph-name="uni6c" unicode="&#x6c;" d="M147 0L147 1485L334 1485L334 0L147 0Z"  horiz-adv-x="481" vert-adv-y="2048"  />

      
      <glyph glyph-name="uni6d" unicode="&#x6d;" d="M147 0L147 1102L334 1102L334 936Q445 1120 666 1120Q904 1120 983 926Q1109 1120 1354 1120Q1538 1120 1624 1007.50Q1710 895 1710 696L1710 0L1524 0L1524 641Q1524 697 1519 740Q1514 783 1499 825.50Q1484 868 1459 896Q1434 924 1390.50 941Q1347 958 1288 958Q1165 958 1093.50 865Q1022 772 1022 598L1022 0L836 0L836 641Q836 697 831 740Q826 783 811 825.50Q796 868 771 896Q746 924 702.50 941Q659 958 600 958Q477 958 405.50 865Q334 772 334 598L334 0L147 0Z"  horiz-adv-x="1841" vert-adv-y="2048"  />

      
      <glyph glyph-name="uni6e" unicode="&#x6e;" d="M147 0L147 1102L334 1102L334 936Q445 1120 690 1120Q1053 1120 1053 696L1053 0L866 0L866 641Q866 698 861.50 740Q857 782 842.50 825.50Q828 869 802 896Q776 923 731.50 940.50Q687 958 625 958Q488 958 411 865.50Q334 773 334 598L334 0L147 0Z"  horiz-adv-x="1183" vert-adv-y="2048"  />

      
      <glyph glyph-name="uni6f" unicode="&#x6f;" d="M120 290Q120 290 98 346.50Q76 403 76 547Q76 691 120 804Q164 917 238.50 984Q313 1051 404.50 1085.50Q496 1120 598 1120Q700 1120 791.50 1085.50Q883 1051 957.50 984Q1032 917 1076 804Q1120 691 1120 547Q1120 403 1076 290Q1032 177 957.50 109.50Q883 42 791.50 7.50Q700-27 598-27Q496-27 404.50 7.50Q313 42 238.50 109.50Q164 177 120 290M274 547Q274 441 299.50 360Q325 279 370.50 231.50Q416 184 473 160.50Q530 137 598 137Q739 137 830.50 241Q922 345 922 547Q922 653 896.50 733.50Q871 814 825.50 861.50Q780 909 723 932.50Q666 956 598 956Q454 956 364 857.50Q274 759 274 547Z"  horiz-adv-x="1196" vert-adv-y="2048"  />

      
      <glyph glyph-name="uni70" unicode="&#x70;" d="M147-358L147 1102L334 1102L334 928Q446 1120 694 1120Q895 1120 1027 965.50Q1159 811 1159 547Q1159 413 1123 303.50Q1087 194 1024 122.50Q961 51 876.50 12Q792-27 694-27Q446-27 334 166L334-358L147-358M352.50 733.50Q352.50 733.50 339.25 692.75Q326 652 326 547Q326 442 352.50 360.50Q379 279 424.50 230.50Q470 182 526.50 157.50Q583 133 647 133Q796 133 876 241.50Q956 350 956 547Q956 744 876 852.50Q796 961 647 961Q583 961 526.50 936.50Q470 912 424.50 863.50Q379 815 352.50 733.50Z"  horiz-adv-x="1230" vert-adv-y="2048"  />

      
      <glyph glyph-name="uni71" unicode="&#x71;" d="M72 547Q72 811 204 965.50Q336 1120 537 1120Q785 1120 897 928L897 1102L1083 1102L1083-358L897-358L897 166Q785-27 537-27Q439-27 354.50 12Q270 51 207 122.50Q144 194 108 303.50Q72 413 72 547M354.50 852.50Q354.50 852.50 314.25 798.25Q274 744 274 547Q274 350 354.50 241.50Q435 133 584 133Q648 133 704.50 157.50Q761 182 806.50 230.50Q852 279 878.50 360.50Q905 442 905 547Q905 652 878.50 733.50Q852 815 806.50 863.50Q761 912 704.50 936.50Q648 961 584 961Q435 961 354.50 852.50Z"  horiz-adv-x="1230" vert-adv-y="2048"  />

      
      <glyph glyph-name="uni72" unicode="&#x72;" d="M147 0L147 1102L330 1102L330 909Q371 1002 452 1053.50Q533 1105 641 1108Q676 1108 696 1106L696 907Q618 915 592 915Q460 915 397 835.50Q334 756 334 578L334 0L147 0Z"  horiz-adv-x="727" vert-adv-y="2048"  />

      
      <glyph glyph-name="uni73" unicode="&#x73;" d="M57 356L254 356Q300 131 543 131Q658 131 732.50 175.50Q807 220 807 295Q807 372 745 414Q683 456 575 477L412 510Q345 524 294 543.50Q243 563 193.50 597Q144 631 117 686.50Q90 742 90 815Q90 957 217 1039.50Q344 1122 539 1122Q722 1122 838 1030.50Q954 939 981 780L786 780Q745 963 518 963Q456 963 404 949.50Q352 936 315.50 903Q279 870 279 823Q279 760 321.50 727Q364 694 455 674L610 643Q696 626 759.50 603.50Q823 581 879.50 544Q936 507 965.50 449.50Q995 392 995 315Q995 156 867 64.50Q739-27 539-27Q432-27 342 5.50Q252 38 193.50 92.50Q135 147 100 214.50Q65 282 57 356Z"  horiz-adv-x="1075" vert-adv-y="2048"  />

      
      <glyph glyph-name="uni74" unicode="&#x74;" d="M27 952L27 1102L201 1102L201 1378L387 1378L387 1102L596 1102L596 952L387 952L387 299Q387 209 406 182.50Q425 156 502 156L596 156L596 0L461 0Q378 0 330.50 10.50Q283 21 252.50 52.50Q222 84 211.50 135.50Q201 187 201 276L201 952L27 952Z"  horiz-adv-x="665" vert-adv-y="2048"  />

      
      <glyph glyph-name="uni75" unicode="&#x75;" d="M131 397L131 1102L317 1102L317 453Q317 396 321.50 354Q326 312 340.50 268.50Q355 225 379.50 197.50Q404 170 447 152.50Q490 135 549 135Q682 135 755.50 228Q829 321 829 496L829 1102L1016 1102L1016 0L829 0L829 158Q717-27 483-27Q131-27 131 397Z"  horiz-adv-x="1163" vert-adv-y="2048"  />

      
      <glyph glyph-name="uni76" unicode="&#x76;" d="M0 1102L207 1102L506 258L805 1102L997 1102L582 0L416 0L0 1102Z"  horiz-adv-x="997" vert-adv-y="2048"  />

      
      <glyph glyph-name="uni77" unicode="&#x77;" d="M10 1102L211 1102L422 287L641 1102L834 1102L1053 287L1264 1102L1464 1102L1147 0L977 0L733 887L498 0L328 0L10 1102Z"  horiz-adv-x="1474" vert-adv-y="2048"  />

      
      <glyph glyph-name="uni78" unicode="&#x78;" d="M16 0L422 567L41 1102L264 1102L532 723L803 1102L1012 1102L637 575L1049 0L825 0L526 420L229 0L16 0Z"  horiz-adv-x="1064" vert-adv-y="2048"  />

      
      <glyph glyph-name="uni79" unicode="&#x79;" d="M0 1102L207 1102L487 252L760 1102L954 1102L561-47Q535-125 513.50-172.50Q492-220 463-259.50Q434-299 395.50-318.50Q357-338 305-348Q253-358 178-358L82-358L82-203L158-203Q201-203 225-201Q249-199 277.50-189.50Q306-180 323-160.50Q340-141 357-107.50Q374-74 389-23L397 0L0 1102Z"  horiz-adv-x="954" vert-adv-y="2048"  />

      
      <glyph glyph-name="uni7a" unicode="&#x7a;" d="M68 0L68 162L705 940L109 940L109 1102L922 1102L922 940L287 162L934 162L934 0L68 0Z"  horiz-adv-x="999" vert-adv-y="2048"  />

      
      <glyph glyph-name="uni7b" unicode="&#x7b;" d="M23 489L23 639Q63 639 91.50 649Q120 659 136.50 676Q153 693 162.50 721.50Q172 750 175 779Q178 808 178 850L178 1182Q178 1273 189.50 1327Q201 1381 234 1418.50Q267 1456 324.50 1470.50Q382 1485 477 1485L573 1485L573 1327L481 1327Q409 1327 388 1299.50Q367 1272 367 1184L367 846Q367 712 325 651Q283 590 195 567L195 561Q283 538 325 477.50Q367 417 367 283L367-57Q367-145 388-173Q409-201 481-201L573-201L573-358L477-358Q382-358 324.50-343.50Q267-329 234-291.50Q201-254 189.50-200Q178-146 178-55L178 279Q178 332 173 366Q168 400 152.50 430.50Q137 461 105 475Q73 489 23 489Z"  horiz-adv-x="593" vert-adv-y="2048"  />

      
      <glyph glyph-name="uni7c" unicode="&#x7c;" d="M176-184L176 1485L346 1485L346-184L176-184Z"  horiz-adv-x="522" vert-adv-y="2048"  />

      
      <glyph glyph-name="uni7d" unicode="&#x7d;" d="M20-201L113-201Q185-201 206-173Q227-145 227-57L227 283Q227 417 269 477.50Q311 538 399 561L399 567Q311 590 269 651Q227 712 227 846L227 1184Q227 1272 206 1299.50Q185 1327 113 1327L20 1327L20 1485L117 1485Q212 1485 269.50 1470.50Q327 1456 360 1418.50Q393 1381 404.50 1327Q416 1273 416 1182L416 850Q416 808 419 779Q422 750 431.50 721.50Q441 693 457.50 676Q474 659 502.50 649Q531 639 571 639L571 489Q521 489 489 475Q457 461 441.50 430.50Q426 400 421 366Q416 332 416 279L416-55Q416-146 404.50-200Q393-254 360-291.50Q327-329 269.50-343.50Q212-358 117-358L20-358L20-201Z"  horiz-adv-x="593" vert-adv-y="2048"  />

      
      <glyph glyph-name="uni7e" unicode="&#x7e;" d="M147 424Q155 559 240 643Q325 727 463 727Q529 727 600 705Q671 683 721.50 656.50Q772 630 829 608Q886 586 926 586Q983 586 1022 623.50Q1061 661 1067 727L1241 727Q1232 591 1147 507.50Q1062 424 926 424Q870 424 802.50 445.50Q735 467 683.50 493.50Q632 520 570.50 541.50Q509 563 463 563Q404 563 365 526.50Q326 490 322 424L147 424Z"  horiz-adv-x="1388" vert-adv-y="2048"  />

      
      <glyph glyph-name="unia1" unicode="&#xa1;" d="M133 866L133 1102L369 1102L369 866L133 866M152 68L193 668L309 668L350 68L350-358L152-358L152 68Z"  horiz-adv-x="501" vert-adv-y="2048"  />

      
      <glyph glyph-name="unia2" unicode="&#xa2;" d="M72 549Q72 782 194 937.50Q316 1093 530 1116L530 1286L625 1286L625 1120Q717 1116 795.50 1080.50Q874 1045 926 989.50Q978 934 1010.50 868Q1043 802 1053 733L864 733Q845 824 782 884Q719 944 625 954L625 139Q724 149 788 210Q852 271 872 358L1065 358Q1038 207 918.50 98.50Q799-10 625-25L625-199L530-199L530-25Q315-7 193.50 149.50Q72 306 72 549M274 551Q274 371 344.50 266.50Q415 162 530 141L530 950Q415 930 344.50 829Q274 728 274 551Z"  horiz-adv-x="1118" vert-adv-y="2048"  />

      
      <glyph glyph-name="unia3" unicode="&#xa3;" d="M41 115Q72 128 106 148Q140 168 180.50 203Q221 238 253 279Q285 320 306.50 377.50Q328 435 328 496Q328 586 291 678L43 678L43 811L229 811Q195 878 178 917Q161 956 144 1018.50Q127 1081 127 1137Q127 1235 170 1309.50Q213 1384 285 1426.50Q357 1469 441 1490Q525 1511 618 1511Q851 1511 984 1380Q1117 1249 1114 1032L922 1032Q919 1203 834 1278.50Q749 1354 610 1354Q559 1354 511.50 1342.50Q464 1331 421 1306Q378 1281 352 1235Q326 1189 326 1128Q326 1108 329 1086.50Q332 1065 335 1048.50Q338 1032 347 1006.50Q356 981 360.50 969Q365 957 378.50 928Q392 899 396 891Q400 883 416.50 849.50Q433 816 436 811L831 811L831 678L496 678Q524 592 524 526Q524 450 491 383.50Q458 317 412.50 274.50Q367 232 307 197L309 193Q385 219 449 219Q504 219 620 179Q736 139 813 139Q925 139 1059 195L1114 33Q1068 6 987-14.50Q906-35 829-35Q752-35 617.50 6Q483 47 401 47Q333 47 252.50 25.50Q172 4 102-35L41 115Z"  horiz-adv-x="1169" vert-adv-y="2048"  />

      
      <glyph glyph-name="unia4" unicode="&#xa4;" d="M111 283L252 426Q162 552 162 709Q162 867 252 993L111 1137L211 1237L350 1098Q480 1198 645 1198Q817 1198 946 1094L1092 1237L1192 1137L1044 989Q1135 857 1135 709Q1135 556 1044 428L1192 283L1092 182L946 326Q811 225 645 225Q485 225 352 324L211 182L111 283M332 709Q332 569 420 474Q508 379 643 379Q786 379 878.50 474Q971 569 971 709Q971 853 878.50 950Q786 1047 643 1047Q508 1047 420 950Q332 853 332 709Z"  horiz-adv-x="1302" vert-adv-y="2048"  />

      
      <glyph glyph-name="unia5" unicode="&#xa5;" d="M-10 1485L209 1485L614 717L1028 1485L1245 1485L756 645L1053 645L1053 514L702 514L702 358L1053 358L1053 227L702 227L702 0L514 0L514 227L180 227L180 358L514 358L514 514L180 514L180 645L463 645L-10 1485Z"  horiz-adv-x="1234" vert-adv-y="2048"  />

      
      <glyph glyph-name="unia6" unicode="&#xa6;" d="M147-184L147 440L317 440L317-184L147-184M147 860L147 1485L317 1485L317 860L147 860Z"  horiz-adv-x="464" vert-adv-y="2048"  />

      
      <glyph glyph-name="unia7" unicode="&#xa7;" d="M76 645Q76 748 151 826.50Q226 905 342 944Q176 1052 176 1223Q176 1293 210 1349.50Q244 1406 301 1440.50Q358 1475 428.50 1493Q499 1511 575 1511Q755 1511 868.50 1422.50Q982 1334 1006 1184L811 1184Q795 1272 729.50 1314Q664 1356 567 1356Q476 1356 421.50 1322Q367 1288 367 1231Q367 1176 403 1134.50Q439 1093 532 1044L813 893Q887 854 936.50 820.50Q986 787 1029 744.50Q1072 702 1093 651Q1114 600 1114 539Q1114 430 1045 343Q976 256 860 207Q930 154 965.50 94.50Q1001 35 1001-45Q1001-151 943.50-228Q886-305 793.50-342Q701-379 586-379Q393-379 272.50-277Q152-175 139 2L332 2Q364-223 590-223Q690-223 750.50-184.50Q811-146 811-74Q811-10 770.50 37.50Q730 85 614 147L348 289Q76 435 76 645M260 657Q260 595 297 548.50Q334 502 422 455L702 303L723 291Q928 381 928 506Q928 574 878.50 627Q829 680 717 741L489 862Q397 835 328.50 781Q260 727 260 657Z"  horiz-adv-x="1187" vert-adv-y="2048"  />

      
      <glyph glyph-name="unia8" unicode="&#xa8;" d="M45 1282L45 1485L231 1485L231 1282L45 1282M514 1282L514 1485L702 1485L702 1282L514 1282Z"  horiz-adv-x="747" vert-adv-y="2048"  />

      
      <glyph glyph-name="unia9" unicode="&#xa9;" d="M78 739Q78 908 138.50 1053Q199 1198 302 1298Q405 1398 546.50 1454.50Q688 1511 846 1511Q1004 1511 1144.50 1454.50Q1285 1398 1388 1298Q1491 1198 1551.50 1053Q1612 908 1612 739Q1612 517 1509 340.50Q1406 164 1231.50 68.50Q1057-27 846-27Q688-27 546.50 29.50Q405 86 302 185Q199 284 138.50 428Q78 572 78 739M229 739Q229 555 311 411Q393 267 533.50 189Q674 111 846 111Q977 111 1090.50 157Q1204 203 1285.50 284Q1367 365 1413.50 483Q1460 601 1460 739Q1460 926 1380 1071.50Q1300 1217 1160.50 1295.50Q1021 1374 846 1374Q674 1374 533.50 1295.50Q393 1217 311 1071Q229 925 229 739M459 760Q459 956 563.50 1068Q668 1180 850 1180Q990 1180 1079.50 1108.50Q1169 1037 1200 920L1047 877Q1027 961 972.50 1006Q918 1051 844 1051Q746 1051 686.50 977.50Q627 904 627 760Q627 616 686.50 540.50Q746 465 844 465Q918 465 973.50 501Q1029 537 1051 618L1206 578Q1169 471 1077.50 402.50Q986 334 844 334Q660 334 559.50 447Q459 560 459 760Z"  horiz-adv-x="1689" vert-adv-y="2048"  />

      
      <glyph glyph-name="uniaa" unicode="&#xaa;" d="M59 1063Q59 1122 91.50 1164Q124 1206 185.50 1229.50Q247 1253 314 1265Q381 1277 473 1284L473 1311Q473 1430 342 1430Q294 1430 260 1402.50Q226 1375 223 1323L78 1323Q84 1418 158.50 1478Q233 1538 354 1538Q477 1538 550.50 1477.50Q624 1417 623 1274Q618 1156 618 1092Q622 961 631 897L496 897Q494 934 494 983Q467 932 408.50 907.50Q350 883 287 883Q181 883 120 932.50Q59 982 59 1063M215 1069Q215 1035 242 1015Q269 995 307 995Q393 995 433 1038.50Q473 1082 473 1153L473 1178Q323 1163 269 1140.50Q215 1118 215 1069Z"  horiz-adv-x="706" vert-adv-y="2048"  />

      
      <glyph glyph-name="uniab" unicode="&#xab;" d="M20 559L346 1026L547 1026L240 559L547 90L346 90L20 559M481 559L807 1026L1008 1026L700 559L1008 90L807 90L481 559Z"  horiz-adv-x="1052" vert-adv-y="2048"  />

      
      <glyph glyph-name="uniac" unicode="&#xac;" d="M119 705L119 881L1188 881L1188 201L999 201L999 705L119 705Z"  horiz-adv-x="1388" vert-adv-y="2048"  />

      
      <glyph glyph-name="uniad" unicode="&#xad;" d="M88 473L88 649L739 649L739 473L88 473Z"  horiz-adv-x="829" vert-adv-y="2048"  />

      
      <glyph glyph-name="uniae" unicode="&#xae;" d="M78 739Q78 908 138.50 1053Q199 1198 302 1298Q405 1398 546.50 1454.50Q688 1511 846 1511Q1004 1511 1144.50 1454.50Q1285 1398 1388 1298Q1491 1198 1551.50 1053Q1612 908 1612 739Q1612 517 1509 340.50Q1406 164 1231.50 68.50Q1057-27 846-27Q688-27 546.50 29.50Q405 86 302 185Q199 284 138.50 428Q78 572 78 739M229 739Q229 555 311 411Q393 267 533.50 189Q674 111 846 111Q977 111 1090.50 157Q1204 203 1285.50 284Q1367 365 1413.50 483Q1460 601 1460 739Q1460 926 1380 1071.50Q1300 1217 1160.50 1295.50Q1021 1374 846 1374Q674 1374 533.50 1295.50Q393 1217 311 1071Q229 925 229 739M547 360L547 1178L797 1178Q895 1178 960.50 1168Q1026 1158 1079 1131Q1132 1104 1157 1053Q1182 1002 1182 924Q1182 854 1145 797Q1108 740 1034 707L1223 360L1036 360L870 672L834 672L715 672L715 360L547 360M715 801L834 801Q928 801 971 831Q1014 861 1014 922Q1014 991 965 1017.50Q916 1044 823 1044L715 1044L715 801Z"  horiz-adv-x="1689" vert-adv-y="2048"  />

      
      <glyph glyph-name="uniaf" unicode="&#xaf;" d="M45 1300L45 1454L659 1454L659 1300L45 1300Z"  horiz-adv-x="704" vert-adv-y="2048"  />

      
      <glyph glyph-name="unib0" unicode="&#xb0;" d="M45 1210Q45 1336 132.50 1423.50Q220 1511 344 1511Q470 1511 558.50 1423.50Q647 1336 647 1210Q647 1085 558.50 997Q470 909 344 909Q221 909 133 997.50Q45 1086 45 1210M195 1210Q195 1143 237 1096Q279 1049 344 1049Q411 1049 455.50 1096Q500 1143 500 1210Q500 1278 455.50 1325Q411 1372 344 1372Q279 1372 237 1325.50Q195 1279 195 1210Z"  horiz-adv-x="690" vert-adv-y="2048"  />

      
      <glyph glyph-name="unib1" unicode="&#xb1;" d="M160 0L160 176L1229 176L1229 0L160 0M160 596L160 772L600 772L600 1090L788 1090L788 772L1229 772L1229 596L788 596L788 276L600 276L600 596L160 596Z"  horiz-adv-x="1388" vert-adv-y="2048"  />

      
      <glyph glyph-name="unib2" unicode="&#xb2;" d="M45 897L45 1018Q138 1092 196.50 1141Q255 1190 315.50 1246.50Q376 1303 408.50 1345Q441 1387 462 1431.50Q483 1476 483 1516Q483 1573 448.50 1604.50Q414 1636 356 1636Q293 1636 251.50 1593.50Q210 1551 211 1462L61 1462Q59 1590 141.50 1668.50Q224 1747 362 1747Q483 1747 561 1688Q639 1629 639 1526Q639 1407 535 1286Q431 1165 225 1026L657 1026L657 897L45 897Z"  horiz-adv-x="712" vert-adv-y="2048"  />

      
      <glyph glyph-name="unib3" unicode="&#xb3;" d="M49 1161L193 1161Q205 1089 247.50 1042Q290 995 365 995Q436 995 481 1032.50Q526 1070 526 1133Q526 1272 332 1272L283 1272L283 1393L324 1393Q508 1393 508 1518Q508 1576 468 1606Q428 1636 369 1636Q297 1636 255.50 1595Q214 1554 203 1479L59 1479Q68 1603 153 1675Q238 1747 379 1747Q432 1747 480.50 1734Q529 1721 570 1695Q611 1669 635 1625Q659 1581 659 1524Q659 1464 627 1415Q595 1366 543 1339Q609 1312 644.50 1257Q680 1202 680 1137Q680 1014 589 948.50Q498 883 362 883Q223 883 140 962Q57 1041 49 1161Z"  horiz-adv-x="739" vert-adv-y="2048"  />

      
      <glyph glyph-name="unib4" unicode="&#xb4;" d="M45 1247L229 1485L469 1485L201 1247L45 1247Z"  horiz-adv-x="514" vert-adv-y="2048"  />

      
      <glyph glyph-name="unib5" unicode="&#xb5;" d="M121-358Q143-260 143-35L143 1102L330 1102L330 455Q330 280 386.50 208.50Q443 137 567 137Q696 137 768 228.50Q840 320 840 489L840 1102L1026 1102L1026 0L840 0L840 152Q793 73 723 23Q653-27 575-27Q418-27 330 96L330-18Q330-247 305-358L121-358Z"  horiz-adv-x="1175" vert-adv-y="2048"  />

      
      <glyph glyph-name="unib6" unicode="&#xb6;" d="M0 1100Q0 1282 125.50 1383.50Q251 1485 494 1485L920 1485L920-182L764-182L764 1341L516 1341L516-182L360-182L360 737Q290 745 227.50 770.50Q165 796 113 839Q61 882 30.50 949.50Q0 1017 0 1100Z"  horiz-adv-x="1067" vert-adv-y="2048"  />

      
      <glyph glyph-name="unib7" unicode="&#xb7;" d="M133 434L133 670L369 670L369 434L133 434Z"  horiz-adv-x="501" vert-adv-y="2048"  />

      
      <glyph glyph-name="unib8" unicode="&#xb8;" d="M45-360L78-279Q139-307 197-307Q248-307 285-291.50Q322-276 322-242Q322-213 296-196.50Q270-180 231-180Q181-180 154-199L92-164L197 6L305 6L240-98Q270-92 301-92Q374-92 415.50-129.50Q457-167 457-231Q457-308 389-353.50Q321-399 236-399Q125-399 45-360Z"  horiz-adv-x="501" vert-adv-y="2048"  />

      
      <glyph glyph-name="unib9" unicode="&#xb9;" d="M27 1528L27 1630Q126 1632 172.50 1650.50Q219 1669 248 1733L360 1733L360 897L209 897L209 1528L27 1528Z"  horiz-adv-x="475" vert-adv-y="2048"  />

      
      <glyph glyph-name="uniba" unicode="&#xba;" d="M59 1206Q59 1364 148 1448Q237 1532 365 1532Q494 1532 582 1448Q670 1364 670 1206Q670 1048 582.50 965.50Q495 883 365 883Q283 883 215.50 916Q148 949 103.50 1024Q59 1099 59 1206M213 1206Q213 1108 255 1054.50Q297 1001 365 1001Q436 1001 477 1053.50Q518 1106 518 1206Q518 1305 476.50 1359Q435 1413 365 1413Q297 1413 255 1358Q213 1303 213 1206Z"  horiz-adv-x="727" vert-adv-y="2048"  />

      
      <glyph glyph-name="unibb" unicode="&#xbb;" d="M45 90L354 559L45 1026L246 1026L571 559L246 90L45 90M506 90L815 559L506 1026L707 1026L1032 559L707 90L506 90Z"  horiz-adv-x="1052" vert-adv-y="2048"  />

      
      <glyph glyph-name="unibc" unicode="&#xbc;" d="M27 1280L27 1382Q126 1384 172.50 1402.50Q219 1421 248 1485L360 1485L360 649L209 649L209 1280L27 1280M66 0L1090 1485L1296 1485L272 0L66 0M920 193L920 311L1333 836L1483 836L1483 317L1626 317L1626 193L1483 193L1483 0L1331 0L1331 193L920 193M1081 317L1331 317L1331 643L1081 317Z"  horiz-adv-x="1658" vert-adv-y="2048"  />

      
      <glyph glyph-name="unibd" unicode="&#xbd;" d="M27 1280L27 1382Q126 1384 172.50 1402.50Q219 1421 248 1485L360 1485L360 649L209 649L209 1280L27 1280M66 0L1090 1485L1296 1485L272 0L66 0M932 0L932 121Q1050 215 1118 273Q1186 331 1250.50 397Q1315 463 1342.50 515.50Q1370 568 1370 618Q1370 676 1335.50 707.50Q1301 739 1243 739Q1180 739 1138.50 696.50Q1097 654 1098 565L948 565Q946 693 1028.50 771.50Q1111 850 1249 850Q1370 850 1448 791Q1526 732 1526 629Q1526 510 1422 389Q1318 268 1112 129L1544 129L1544 0L932 0Z"  horiz-adv-x="1597" vert-adv-y="2048"  />

      
      <glyph glyph-name="unibe" unicode="&#xbe;" d="M49 913L193 913Q204 841 247 794.50Q290 748 365 748Q436 748 481 785Q526 822 526 885Q526 1024 332 1024L283 1024L283 1145L324 1145Q508 1145 508 1270Q508 1328 468 1358.50Q428 1389 369 1389Q226 1389 203 1231L59 1231Q68 1355 153 1427Q238 1499 379 1499Q432 1499 480.50 1486Q529 1473 570 1447Q611 1421 635 1377Q659 1333 659 1276Q659 1216 627.50 1167.50Q596 1119 543 1092Q608 1065 644 1009.50Q680 954 680 889Q680 766 589 700.50Q498 635 362 635Q223 635 140 714Q57 793 49 913M330 0L1354 1485L1561 1485L537 0L330 0M1184 193L1184 311L1597 836L1747 836L1747 317L1890 317L1890 193L1747 193L1747 0L1595 0L1595 193L1184 193M1346 317L1595 317L1595 643L1346 317Z"  horiz-adv-x="1923" vert-adv-y="2048"  />

      
      <glyph glyph-name="unibf" unicode="&#xbf;" d="M27-27Q27 29 44 81.50Q61 134 84 171Q107 208 148 250.50Q189 293 217.50 316Q246 339 295 377Q306 385 338 408Q370 431 381 440Q392 449 413.50 470.50Q435 492 443.50 508Q452 524 459.50 549.50Q467 575 467 604L467 668L657 668L657 598Q657 558 650.50 524.50Q644 491 627.50 461.50Q611 432 597 411.50Q583 391 554 366Q525 341 509 328Q493 315 456.50 290Q420 265 406 254Q369 226 350.50 211Q332 196 303 167Q274 138 260 114Q246 90 234.50 54.50Q223 19 223-20Q223-114 299-168.50Q375-223 498-223Q562-223 614-205Q666-187 698.50-159Q731-131 753.50-93.50Q776-56 785.50-20Q795 16 797 53L983 53Q982-77 917-177.50Q852-278 740-332.50Q628-387 487-387Q398-387 317.50-365.50Q237-344 171-301.50Q105-259 66-188Q27-117 27-27M440 866L440 1102L676 1102L676 866L440 866Z"  horiz-adv-x="1021" vert-adv-y="2048"  />

      
      <glyph glyph-name="unic0" unicode="&#xc0;" d="M0 0L551 1485L793 1485L1352 0L1126 0L1010 322L328 322L213 0L0 0M281 1815L545 1815L770 1583L584 1583L281 1815M391 500L944 500L666 1274L391 500Z"  horiz-adv-x="1351" vert-adv-y="2048"  />

      
      <glyph glyph-name="unic1" unicode="&#xc1;" d="M0 0L551 1485L793 1485L1352 0L1126 0L1010 322L328 322L213 0L0 0M391 500L944 500L666 1274L391 500M584 1583L809 1815L1073 1815L768 1583L584 1583Z"  horiz-adv-x="1351" vert-adv-y="2048"  />

      
      <glyph glyph-name="unic2" unicode="&#xc2;" d="M0 0L551 1485L793 1485L1352 0L1126 0L1010 322L328 322L213 0L0 0M317 1583L594 1815L764 1815L1034 1583L815 1583L676 1698L537 1583L317 1583M391 500L944 500L666 1274L391 500Z"  horiz-adv-x="1351" vert-adv-y="2048"  />

      
      <glyph glyph-name="unic3" unicode="&#xc3;" d="M0 0L551 1485L793 1485L1352 0L1126 0L1010 322L328 322L213 0L0 0M299 1587Q319 1702 381.50 1759.50Q444 1817 535 1817Q577 1817 617.50 1802Q658 1787 684.50 1768.50Q711 1750 745.50 1735Q780 1720 811 1720Q850 1720 875.50 1743.50Q901 1767 907 1812L1053 1812Q1033 1692 968.50 1636.50Q904 1581 815 1581Q763 1581 711.50 1605Q660 1629 616 1653Q572 1677 537 1677Q497 1677 473 1653.50Q449 1630 444 1587L299 1587M391 500L944 500L666 1274L391 500Z"  horiz-adv-x="1351" vert-adv-y="2048"  />

      
      <glyph glyph-name="unic4" unicode="&#xc4;" d="M0 0L551 1485L793 1485L1352 0L1126 0L1010 322L328 322L213 0L0 0M348 1597L348 1800L535 1800L535 1597L348 1597M391 500L944 500L666 1274L391 500M817 1597L817 1800L1006 1800L1006 1597L817 1597Z"  horiz-adv-x="1351" vert-adv-y="2048"  />

      
      <glyph glyph-name="unic5" unicode="&#xc5;" d="M0 0L551 1485L793 1485L1352 0L1126 0L1010 322L328 322L213 0L0 0M391 500L944 500L666 1274L391 500M492 1741Q492 1816 546 1865.50Q600 1915 676 1915Q754 1915 808 1865.50Q862 1816 862 1741Q862 1666 808.50 1616.50Q755 1567 676 1567Q599 1567 545.50 1617Q492 1667 492 1741M614.50 1803.50Q614.50 1803.50 601.25 1790.75Q588 1778 588 1741Q588 1704 614.50 1679.50Q641 1655 676 1655Q712 1655 738 1679.50Q764 1704 764 1741Q764 1779 738 1804Q712 1829 676 1829Q641 1829 614.50 1803.50Z"  horiz-adv-x="1351" vert-adv-y="2048"  />

      
      <glyph glyph-name="unic6" unicode="&#xc6;" d="M0 0L1081 1485L2089 1485L2089 1305L1292 1305L1292 854L2042 854L2042 674L1292 674L1292 180L2089 180L2089 0L1081 0L1081 317L457 317L229 0L0 0M588 500L1081 500L1081 1186L588 500Z"  horiz-adv-x="2150" vert-adv-y="2048"  />

      
      <glyph glyph-name="unic7" unicode="&#xc7;" d="M104 745Q104 1092 292.50 1301.50Q481 1511 795 1511Q1029 1511 1198 1378.50Q1367 1246 1413 1012L1210 1012Q1175 1157 1065 1246Q955 1335 784 1335Q580 1335 448.50 1179.50Q317 1024 317 745Q317 469 448.50 309.50Q580 150 791 150Q962 150 1072 237.50Q1182 325 1219 473L1421 473Q1373 237 1204.50 107.50Q1036-22 797-27L752-98Q782-92 813-92Q886-92 927.50-129.50Q969-167 969-231Q969-308 901-353.50Q833-399 748-399Q637-399 557-360L590-279Q651-307 709-307Q760-307 797-291.50Q834-276 834-242Q834-213 808-196.50Q782-180 743-180Q693-180 666-199L604-164L690-23Q506-3 373 100Q240 203 172 368.50Q104 534 104 745Z"  horiz-adv-x="1486" vert-adv-y="2048"  />

      
      <glyph glyph-name="unic8" unicode="&#xc8;" d="M176 0L176 1485L1184 1485L1184 1305L385 1305L385 854L1137 854L1137 674L385 674L385 180L1184 180L1184 0L176 0M326 1815L590 1815L815 1583L629 1583L326 1815Z"  horiz-adv-x="1255" vert-adv-y="2048"  />

      
      <glyph glyph-name="unic9" unicode="&#xc9;" d="M176 0L176 1485L1184 1485L1184 1305L385 1305L385 854L1137 854L1137 674L385 674L385 180L1184 180L1184 0L176 0M588 1583L813 1815L1077 1815L772 1583L588 1583Z"  horiz-adv-x="1255" vert-adv-y="2048"  />

      
      <glyph glyph-name="unica" unicode="&#xca;" d="M176 0L176 1485L1184 1485L1184 1305L385 1305L385 854L1137 854L1137 674L385 674L385 180L1184 180L1184 0L176 0M336 1583L612 1815L782 1815L1053 1583L834 1583L694 1698L555 1583L336 1583Z"  horiz-adv-x="1255" vert-adv-y="2048"  />

      
      <glyph glyph-name="unicb" unicode="&#xcb;" d="M176 0L176 1485L1184 1485L1184 1305L385 1305L385 854L1137 854L1137 674L385 674L385 180L1184 180L1184 0L176 0M352 1597L352 1800L539 1800L539 1597L352 1597M821 1597L821 1800L1010 1800L1010 1597L821 1597Z"  horiz-adv-x="1255" vert-adv-y="2048"  />

      
      <glyph glyph-name="unicc" unicode="&#xcc;" d="M-115 1815L150 1815L375 1583L188 1583L-115 1815M176 0L176 1485L385 1485L385 0L176 0Z"  horiz-adv-x="561" vert-adv-y="2048"  />

      
      <glyph glyph-name="unicd" unicode="&#xcd;" d="M176 0L176 1485L385 1485L385 0L176 0M188 1583L414 1815L678 1815L373 1583L188 1583Z"  horiz-adv-x="561" vert-adv-y="2048"  />

      
      <glyph glyph-name="unice" unicode="&#xce;" d="M-78 1583L199 1815L369 1815L639 1583L420 1583L281 1698L141 1583L-78 1583M176 0L176 1485L385 1485L385 0L176 0Z"  horiz-adv-x="561" vert-adv-y="2048"  />

      
      <glyph glyph-name="unicf" unicode="&#xcf;" d="M-47 1597L-47 1800L139 1800L139 1597L-47 1597M176 0L176 1485L385 1485L385 0L176 0M422 1597L422 1800L610 1800L610 1597L422 1597Z"  horiz-adv-x="561" vert-adv-y="2048"  />

      
      <glyph glyph-name="unid0" unicode="&#xd0;" d="M45 662L45 846L176 846L176 1485L582 1485Q728 1485 847.50 1462.50Q967 1440 1070 1386.50Q1173 1333 1242.50 1249Q1312 1165 1351.50 1037Q1391 909 1391 743Q1391 576 1351.50 448Q1312 320 1242.50 236Q1173 152 1070 98.50Q967 45 848 22.50Q729 0 582 0L176 0L176 662L45 662M385 176L575 176Q638 176 689.50 180Q741 184 798.50 193.50Q856 203 901 222Q946 241 991 269.50Q1036 298 1068.50 341.50Q1101 385 1126.50 441Q1152 497 1165 573.50Q1178 650 1178 743Q1178 848 1160 932.50Q1142 1017 1112.50 1075.50Q1083 1134 1037 1177Q991 1220 942 1245Q893 1270 828.50 1285Q764 1300 706 1304.50Q648 1309 575 1309L385 1309L385 846L711 846L711 662L385 662L385 176Z"  horiz-adv-x="1492" vert-adv-y="2048"  />

      
      <glyph glyph-name="unid1" unicode="&#xd1;" d="M176 0L176 1485L483 1485L1161 221L1161 1485L1370 1485L1370 0L1065 0L385 1268L385 0L176 0M436 1587Q456 1702 518.50 1759.50Q581 1817 672 1817Q714 1817 754.50 1802Q795 1787 821.50 1768.50Q848 1750 882.50 1735Q917 1720 948 1720Q987 1720 1012.50 1743.50Q1038 1767 1044 1812L1190 1812Q1170 1692 1105.50 1636.50Q1041 1581 952 1581Q900 1581 848.50 1605Q797 1629 753 1653Q709 1677 674 1677Q634 1677 610.50 1653.50Q587 1630 582 1587L436 1587Z"  horiz-adv-x="1546" vert-adv-y="2048"  />

      
      <glyph glyph-name="unid2" unicode="&#xd2;" d="M188 345Q188 345 146 432Q104 519 104 743Q104 967 188 1140.50Q272 1314 431.50 1412.50Q591 1511 801 1511Q1011 1511 1170 1412.50Q1329 1314 1413 1140.50Q1497 967 1497 743Q1497 519 1413 345Q1329 171 1170 72Q1011-27 801-27Q591-27 431.50 72Q272 171 188 345M454 1178Q454 1178 385.50 1099.50Q317 1021 317 743Q317 465 454 307.50Q591 150 801 150Q1011 150 1147.50 307.50Q1284 465 1284 743Q1284 1021 1147.50 1178Q1011 1335 801 1335Q591 1335 454 1178M406 1815L670 1815L895 1583L709 1583L406 1815Z"  horiz-adv-x="1601" vert-adv-y="2048"  />

      
      <glyph glyph-name="unid3" unicode="&#xd3;" d="M188 345Q188 345 146 432Q104 519 104 743Q104 967 188 1140.50Q272 1314 431.50 1412.50Q591 1511 801 1511Q1011 1511 1170 1412.50Q1329 1314 1413 1140.50Q1497 967 1497 743Q1497 519 1413 345Q1329 171 1170 72Q1011-27 801-27Q591-27 431.50 72Q272 171 188 345M454 1178Q454 1178 385.50 1099.50Q317 1021 317 743Q317 465 454 307.50Q591 150 801 150Q1011 150 1147.50 307.50Q1284 465 1284 743Q1284 1021 1147.50 1178Q1011 1335 801 1335Q591 1335 454 1178M709 1583L934 1815L1198 1815L893 1583L709 1583Z"  horiz-adv-x="1601" vert-adv-y="2048"  />

      
      <glyph glyph-name="unid4" unicode="&#xd4;" d="M188 345Q188 345 146 432Q104 519 104 743Q104 967 188 1140.50Q272 1314 431.50 1412.50Q591 1511 801 1511Q1011 1511 1170 1412.50Q1329 1314 1413 1140.50Q1497 967 1497 743Q1497 519 1413 345Q1329 171 1170 72Q1011-27 801-27Q591-27 431.50 72Q272 171 188 345M454 1178Q454 1178 385.50 1099.50Q317 1021 317 743Q317 465 454 307.50Q591 150 801 150Q1011 150 1147.50 307.50Q1284 465 1284 743Q1284 1021 1147.50 1178Q1011 1335 801 1335Q591 1335 454 1178M442 1583L719 1815L889 1815L1159 1583L940 1583L801 1698L662 1583L442 1583Z"  horiz-adv-x="1601" vert-adv-y="2048"  />

      
      <glyph glyph-name="unid5" unicode="&#xd5;" d="M188 345Q188 345 146 432Q104 519 104 743Q104 967 188 1140.50Q272 1314 431.50 1412.50Q591 1511 801 1511Q1011 1511 1170 1412.50Q1329 1314 1413 1140.50Q1497 967 1497 743Q1497 519 1413 345Q1329 171 1170 72Q1011-27 801-27Q591-27 431.50 72Q272 171 188 345M454 1178Q454 1178 385.50 1099.50Q317 1021 317 743Q317 465 454 307.50Q591 150 801 150Q1011 150 1147.50 307.50Q1284 465 1284 743Q1284 1021 1147.50 1178Q1011 1335 801 1335Q591 1335 454 1178M424 1587Q444 1702 506 1759.50Q568 1817 659 1817Q701 1817 741.50 1802Q782 1787 809 1768.50Q836 1750 870.50 1735Q905 1720 936 1720Q975 1720 1000.50 1743.50Q1026 1767 1032 1812L1178 1812Q1158 1692 1093.50 1636.50Q1029 1581 940 1581Q888 1581 836.50 1605Q785 1629 741 1653Q697 1677 662 1677Q622 1677 598 1653.50Q574 1630 569 1587L424 1587Z"  horiz-adv-x="1601" vert-adv-y="2048"  />

      
      <glyph glyph-name="unid6" unicode="&#xd6;" d="M188 345Q188 345 146 432Q104 519 104 743Q104 967 188 1140.50Q272 1314 431.50 1412.50Q591 1511 801 1511Q1011 1511 1170 1412.50Q1329 1314 1413 1140.50Q1497 967 1497 743Q1497 519 1413 345Q1329 171 1170 72Q1011-27 801-27Q591-27 431.50 72Q272 171 188 345M454 1178Q454 1178 385.50 1099.50Q317 1021 317 743Q317 465 454 307.50Q591 150 801 150Q1011 150 1147.50 307.50Q1284 465 1284 743Q1284 1021 1147.50 1178Q1011 1335 801 1335Q591 1335 454 1178M473 1597L473 1800L659 1800L659 1597L473 1597M942 1597L942 1800L1130 1800L1130 1597L942 1597Z"  horiz-adv-x="1601" vert-adv-y="2048"  />

      
      <glyph glyph-name="unid7" unicode="&#xd7;" d="M213 207L557 549L213 895L346 1026L688 684L1032 1024L1165 893L821 549L1176 195L1044 61L688 416L346 76L213 207Z"  horiz-adv-x="1388" vert-adv-y="2048"  />

      
      <glyph glyph-name="unid8" unicode="&#xd8;" d="M104 743Q104 967 188 1140.50Q272 1314 431.50 1412.50Q591 1511 801 1511Q1065 1511 1249 1354L1368 1495L1450 1423L1325 1276Q1497 1070 1497 743Q1497 519 1413 345Q1329 171 1170 72Q1011-27 801-27Q530-27 350 133L213-29L131 45L272 211Q104 419 104 743M317 743Q317 521 408 371L1122 1206Q990 1335 801 1335Q591 1335 454 1178Q317 1021 317 743M477 281Q605 150 801 150Q1011 150 1147.50 307.50Q1284 465 1284 743Q1284 968 1190 1118L477 281Z"  horiz-adv-x="1599" vert-adv-y="2048"  />

      
      <glyph glyph-name="unid9" unicode="&#xd9;" d="M154 604L154 1485L362 1485L362 582Q362 360 450.50 257Q539 154 745 154Q953 154 1044 265.50Q1135 377 1135 604L1135 1485L1343 1485L1343 621Q1343 289 1203 131Q1063-27 745-27Q588-27 478.50 6.50Q369 40 295.50 115Q222 190 188 310Q154 430 154 604M352 1815L616 1815L842 1583L655 1583L352 1815Z"  horiz-adv-x="1497" vert-adv-y="2048"  />

      
      <glyph glyph-name="unida" unicode="&#xda;" d="M154 604L154 1485L362 1485L362 582Q362 360 450.50 257Q539 154 745 154Q953 154 1044 265.50Q1135 377 1135 604L1135 1485L1343 1485L1343 621Q1343 289 1203 131Q1063-27 745-27Q588-27 478.50 6.50Q369 40 295.50 115Q222 190 188 310Q154 430 154 604M635 1583L860 1815L1124 1815L819 1583L635 1583Z"  horiz-adv-x="1497" vert-adv-y="2048"  />

      
      <glyph glyph-name="unidb" unicode="&#xdb;" d="M154 604L154 1485L362 1485L362 582Q362 360 450.50 257Q539 154 745 154Q953 154 1044 265.50Q1135 377 1135 604L1135 1485L1343 1485L1343 621Q1343 289 1203 131Q1063-27 745-27Q588-27 478.50 6.50Q369 40 295.50 115Q222 190 188 310Q154 430 154 604M389 1583L666 1815L836 1815L1106 1583L887 1583L748 1698L608 1583L389 1583Z"  horiz-adv-x="1497" vert-adv-y="2048"  />

      
      <glyph glyph-name="unidc" unicode="&#xdc;" d="M154 604L154 1485L362 1485L362 582Q362 360 450.50 257Q539 154 745 154Q953 154 1044 265.50Q1135 377 1135 604L1135 1485L1343 1485L1343 621Q1343 289 1203 131Q1063-27 745-27Q588-27 478.50 6.50Q369 40 295.50 115Q222 190 188 310Q154 430 154 604M420 1597L420 1800L606 1800L606 1597L420 1597M889 1597L889 1800L1077 1800L1077 1597L889 1597Z"  horiz-adv-x="1497" vert-adv-y="2048"  />

      
      <glyph glyph-name="unidd" unicode="&#xdd;" d="M0 1485L229 1485L635 760L1049 1485L1278 1485L733 575L733 0L524 0L524 580L0 1485M506 1583L731 1815L995 1815L690 1583L506 1583Z"  horiz-adv-x="1277" vert-adv-y="2048"  />

      
      <glyph glyph-name="unide" unicode="&#xde;" d="M176 0L176 1485L385 1485L385 1227L608 1227Q722 1227 811 1214.50Q900 1202 980 1170.50Q1060 1139 1112 1088Q1164 1037 1194.50 955.50Q1225 874 1225 766Q1225 658 1194.50 577.50Q1164 497 1112 446Q1060 395 980 363.50Q900 332 811 319.50Q722 307 608 307L385 307L385 0L176 0M385 492L623 492Q696 492 748.50 497Q801 502 854 519Q907 536 939 565Q971 594 991.50 644.50Q1012 695 1012 766Q1012 837 991.50 888Q971 939 939 968.50Q907 998 854 1015Q801 1032 748.50 1037Q696 1042 623 1042L385 1042L385 492Z"  horiz-adv-x="1269" vert-adv-y="2048"  />

      
      <glyph glyph-name="unidf" unicode="&#xdf;" d="M147 0L147 1006Q147 1255 260 1368Q390 1509 672 1509Q874 1509 1004.50 1413Q1135 1317 1135 1157Q1135 928 911 836Q1221 756 1221 438Q1221 337 1190.50 257Q1160 177 1109 124.50Q1058 72 987 37.50Q916 3 838.50-12Q761-27 674-27Q566-27 451-4L492 172Q587 141 682 141Q750 141 808 156Q866 171 915 203.50Q964 236 992 295.50Q1020 355 1020 436Q1020 733 604 733L598 733L598 903L602 903Q766 903 856 964Q946 1025 946 1135Q946 1234 869.50 1295Q793 1356 670 1356Q471 1356 397 1255Q334 1179 334 1006L334 0L147 0Z"  horiz-adv-x="1296" vert-adv-y="2048"  />

      
      <glyph glyph-name="unie0" unicode="&#xe0;" d="M84 287Q84 352 107 404Q130 456 177.50 494.50Q225 533 286 562Q347 591 435.50 613Q524 635 615.50 649.50Q707 664 829 678L829 709Q829 854 760.50 913.50Q692 973 573 973Q448 973 380.50 915.50Q313 858 307 754L115 754Q124 869 191 954.50Q258 1040 358 1082Q458 1124 575 1124Q805 1124 911 1016.50Q1017 909 1016 674L1014 416Q1011 160 1042 0L854 0Q843 78 840 162Q728-27 463-27Q302-27 193 57.50Q84 142 84 287M238 1485L475 1485L662 1247L504 1247L238 1485M291 295Q291 216 348 168.50Q405 121 504 121Q574 121 631.50 139Q689 157 738.50 197Q788 237 816 312.50Q844 388 844 494L844 530Q752 520 685 511Q618 502 551 488.50Q484 475 440 458Q396 441 360 418Q324 395 307.50 364Q291 333 291 295Z"  horiz-adv-x="1144" vert-adv-y="2048"  />

      
      <glyph glyph-name="unie1" unicode="&#xe1;" d="M84 287Q84 352 107 404Q130 456 177.50 494.50Q225 533 286 562Q347 591 435.50 613Q524 635 615.50 649.50Q707 664 829 678L829 709Q829 854 760.50 913.50Q692 973 573 973Q448 973 380.50 915.50Q313 858 307 754L115 754Q124 869 191 954.50Q258 1040 358 1082Q458 1124 575 1124Q805 1124 911 1016.50Q1017 909 1016 674L1014 416Q1011 160 1042 0L854 0Q843 78 840 162Q728-27 463-27Q302-27 193 57.50Q84 142 84 287M291 295Q291 216 348 168.50Q405 121 504 121Q574 121 631.50 139Q689 157 738.50 197Q788 237 816 312.50Q844 388 844 494L844 530Q752 520 685 511Q618 502 551 488.50Q484 475 440 458Q396 441 360 418Q324 395 307.50 364Q291 333 291 295M483 1247L668 1485L907 1485L639 1247L483 1247Z"  horiz-adv-x="1144" vert-adv-y="2048"  />

      
      <glyph glyph-name="unie2" unicode="&#xe2;" d="M84 287Q84 352 107 404Q130 456 177.50 494.50Q225 533 286 562Q347 591 435.50 613Q524 635 615.50 649.50Q707 664 829 678L829 709Q829 854 760.50 913.50Q692 973 573 973Q448 973 380.50 915.50Q313 858 307 754L115 754Q124 869 191 954.50Q258 1040 358 1082Q458 1124 575 1124Q805 1124 911 1016.50Q1017 909 1016 674L1014 416Q1011 160 1042 0L854 0Q843 78 840 162Q728-27 463-27Q302-27 193 57.50Q84 142 84 287M223 1247L494 1485L676 1485L940 1247L743 1247L582 1358L420 1247L223 1247M291 295Q291 216 348 168.50Q405 121 504 121Q574 121 631.50 139Q689 157 738.50 197Q788 237 816 312.50Q844 388 844 494L844 530Q752 520 685 511Q618 502 551 488.50Q484 475 440 458Q396 441 360 418Q324 395 307.50 364Q291 333 291 295Z"  horiz-adv-x="1144" vert-adv-y="2048"  />

      
      <glyph glyph-name="unie3" unicode="&#xe3;" d="M84 287Q84 352 107 404Q130 456 177.50 494.50Q225 533 286 562Q347 591 435.50 613Q524 635 615.50 649.50Q707 664 829 678L829 709Q829 854 760.50 913.50Q692 973 573 973Q448 973 380.50 915.50Q313 858 307 754L115 754Q124 869 191 954.50Q258 1040 358 1082Q458 1124 575 1124Q805 1124 911 1016.50Q1017 909 1016 674L1014 416Q1011 160 1042 0L854 0Q843 78 840 162Q728-27 463-27Q302-27 193 57.50Q84 142 84 287M184 1262Q204 1377 266.50 1434Q329 1491 420 1491Q473 1491 522 1466.50Q571 1442 614.50 1417.50Q658 1393 696 1393Q735 1393 761 1416.50Q787 1440 793 1485L938 1485Q917 1366 852.50 1309.50Q788 1253 700 1253Q659 1253 617 1268.50Q575 1284 547 1302.50Q519 1321 484.50 1336.50Q450 1352 422 1352Q382 1352 358.50 1328.50Q335 1305 330 1262L184 1262M291 295Q291 216 348 168.50Q405 121 504 121Q574 121 631.50 139Q689 157 738.50 197Q788 237 816 312.50Q844 388 844 494L844 530Q752 520 685 511Q618 502 551 488.50Q484 475 440 458Q396 441 360 418Q324 395 307.50 364Q291 333 291 295Z"  horiz-adv-x="1144" vert-adv-y="2048"  />

      
      <glyph glyph-name="unie4" unicode="&#xe4;" d="M84 287Q84 352 107 404Q130 456 177.50 494.50Q225 533 286 562Q347 591 435.50 613Q524 635 615.50 649.50Q707 664 829 678L829 709Q829 854 760.50 913.50Q692 973 573 973Q448 973 380.50 915.50Q313 858 307 754L115 754Q124 869 191 954.50Q258 1040 358 1082Q458 1124 575 1124Q805 1124 911 1016.50Q1017 909 1016 674L1014 416Q1011 160 1042 0L854 0Q843 78 840 162Q728-27 463-27Q302-27 193 57.50Q84 142 84 287M233 1282L233 1485L420 1485L420 1282L233 1282M291 295Q291 216 348 168.50Q405 121 504 121Q574 121 631.50 139Q689 157 738.50 197Q788 237 816 312.50Q844 388 844 494L844 530Q752 520 685 511Q618 502 551 488.50Q484 475 440 458Q396 441 360 418Q324 395 307.50 364Q291 333 291 295M702 1282L702 1485L891 1485L891 1282L702 1282Z"  horiz-adv-x="1144" vert-adv-y="2048"  />

      
      <glyph glyph-name="unie5" unicode="&#xe5;" d="M84 287Q84 352 107 404Q130 456 177.50 494.50Q225 533 286 562Q347 591 435.50 613Q524 635 615.50 649.50Q707 664 829 678L829 709Q829 854 760.50 913.50Q692 973 573 973Q448 973 380.50 915.50Q313 858 307 754L115 754Q124 869 191 954.50Q258 1040 358 1082Q458 1124 575 1124Q805 1124 911 1016.50Q1017 909 1016 674L1014 416Q1011 160 1042 0L854 0Q843 78 840 162Q728-27 463-27Q302-27 193 57.50Q84 142 84 287M291 295Q291 216 348 168.50Q405 121 504 121Q574 121 631.50 139Q689 157 738.50 197Q788 237 816 312.50Q844 388 844 494L844 530Q752 520 685 511Q618 502 551 488.50Q484 475 440 458Q396 441 360 418Q324 395 307.50 364Q291 333 291 295M397 1403Q397 1478 451.50 1527.50Q506 1577 582 1577Q660 1577 714 1527.50Q768 1478 768 1403Q768 1328 714.50 1278.50Q661 1229 582 1229Q505 1229 451 1279Q397 1329 397 1403M494 1403Q494 1367 520.50 1342Q547 1317 582 1317Q618 1317 644 1342Q670 1367 670 1403Q670 1441 644 1466Q618 1491 582 1491Q547 1491 520.50 1465.50Q494 1440 494 1403Z"  horiz-adv-x="1144" vert-adv-y="2048"  />

      
      <glyph glyph-name="unie6" unicode="&#xe6;" d="M88 281Q88 345 106 394.50Q124 444 166 483Q208 522 264 550.50Q320 579 408.50 602.50Q497 626 594 643.50Q691 661 829 680L829 725Q829 973 573 973Q448 973 380 915.50Q312 858 303 754L115 754Q124 869 191 954.50Q258 1040 358 1082Q458 1124 575 1124Q871 1124 961 940Q1092 1120 1341 1120Q1507 1120 1628 1036.50Q1749 953 1805.50 811.50Q1862 670 1849 496L1016 496Q1015 334 1109 234.50Q1203 135 1343 135Q1465 135 1534.50 182.50Q1604 230 1642 319L1835 319Q1794 167 1668 70Q1542-27 1348-27Q1051-27 924 203Q777-27 469-27Q299-27 193.50 55.50Q88 138 88 281M287 293Q287 216 345.50 170.50Q404 125 500 125Q570 125 628 143Q686 161 736.50 201Q787 241 815.50 317Q844 393 844 498L844 543Q792 532 707 516.50Q622 501 616 500Q550 487 506 475.50Q462 464 417 447Q372 430 346 409.50Q320 389 303.50 359.50Q287 330 287 293M1018 649L1653 649Q1650 776 1566.50 869.50Q1483 963 1341 963Q1198 963 1111 880Q1024 797 1018 649Z"  horiz-adv-x="1921" vert-adv-y="2048"  />

      
      <glyph glyph-name="unie7" unicode="&#xe7;" d="M72 549Q72 714 133.50 842.50Q195 971 315.50 1045.50Q436 1120 598 1120Q696 1120 779.50 1086Q863 1052 918.50 996Q974 940 1008.50 872.50Q1043 805 1053 733L864 733Q843 834 769.50 895Q696 956 586 956Q449 956 361.50 852.50Q274 749 274 551Q274 350 362.50 243.50Q451 137 586 137Q701 137 775.50 200.50Q850 264 872 358L1065 358Q1046 256 985 171.50Q924 87 823.50 32.50Q723-22 602-27L557-98Q587-92 618-92Q691-92 732.50-129.50Q774-167 774-231Q774-308 706-353.50Q638-399 553-399Q442-399 362-360L395-279Q456-307 514-307Q565-307 602-291.50Q639-276 639-242Q639-212 613.50-196Q588-180 549-180Q498-180 471-199L410-164L498-20Q298 7 185 161.50Q72 316 72 549Z"  horiz-adv-x="1128" vert-adv-y="2048"  />

      
      <glyph glyph-name="unie8" unicode="&#xe8;" d="M72 549Q72 807 220 963.50Q368 1120 600 1120Q766 1120 887 1034.50Q1008 949 1064.50 806.50Q1121 664 1108 489L274 489Q274 329 368.50 233Q463 137 602 137Q724 137 793.50 183.50Q863 230 901 319L1094 319Q1053 167 927 70Q801-27 606-27Q477-27 374.50 17Q272 61 206.50 139Q141 217 106.50 321.50Q72 426 72 549M246 1485L483 1485L670 1247L512 1247L246 1485M276 649L911 649Q908 776 825 868.50Q742 961 600 961Q457 961 369.50 878.50Q282 796 276 649Z"  horiz-adv-x="1179" vert-adv-y="2048"  />

      
      <glyph glyph-name="unie9" unicode="&#xe9;" d="M72 549Q72 807 220 963.50Q368 1120 600 1120Q766 1120 887 1034.50Q1008 949 1064.50 806.50Q1121 664 1108 489L274 489Q274 329 368.50 233Q463 137 602 137Q724 137 793.50 183.50Q863 230 901 319L1094 319Q1053 167 927 70Q801-27 606-27Q477-27 374.50 17Q272 61 206.50 139Q141 217 106.50 321.50Q72 426 72 549M276 649L911 649Q908 776 825 868.50Q742 961 600 961Q457 961 369.50 878.50Q282 796 276 649M512 1247L696 1485L936 1485L668 1247L512 1247Z"  horiz-adv-x="1179" vert-adv-y="2048"  />

      
      <glyph glyph-name="uniea" unicode="&#xea;" d="M72 549Q72 807 220 963.50Q368 1120 600 1120Q766 1120 887 1034.50Q1008 949 1064.50 806.50Q1121 664 1108 489L274 489Q274 329 368.50 233Q463 137 602 137Q724 137 793.50 183.50Q863 230 901 319L1094 319Q1053 167 927 70Q801-27 606-27Q477-27 374.50 17Q272 61 206.50 139Q141 217 106.50 321.50Q72 426 72 549M231 1247L502 1485L684 1485L948 1247L752 1247L590 1358L428 1247L231 1247M276 649L911 649Q908 776 825 868.50Q742 961 600 961Q457 961 369.50 878.50Q282 796 276 649Z"  horiz-adv-x="1179" vert-adv-y="2048"  />

      
      <glyph glyph-name="unieb" unicode="&#xeb;" d="M72 549Q72 807 220 963.50Q368 1120 600 1120Q766 1120 887 1034.50Q1008 949 1064.50 806.50Q1121 664 1108 489L274 489Q274 329 368.50 233Q463 137 602 137Q724 137 793.50 183.50Q863 230 901 319L1094 319Q1053 167 927 70Q801-27 606-27Q477-27 374.50 17Q272 61 206.50 139Q141 217 106.50 321.50Q72 426 72 549M262 1282L262 1485L449 1485L449 1282L262 1282M276 649L911 649Q908 776 825 868.50Q742 961 600 961Q457 961 369.50 878.50Q282 796 276 649M731 1282L731 1485L920 1485L920 1282L731 1282Z"  horiz-adv-x="1179" vert-adv-y="2048"  />

      
      <glyph glyph-name="uniec" unicode="&#xec;" d="M-104 1485L133 1485L319 1247L162 1247L-104 1485M147 0L147 1102L334 1102L334 0L147 0Z"  horiz-adv-x="481" vert-adv-y="2048"  />

      
      <glyph glyph-name="unied" unicode="&#xed;" d="M147 0L147 1102L334 1102L334 0L147 0M162 1247L346 1485L586 1485L317 1247L162 1247Z"  horiz-adv-x="481" vert-adv-y="2048"  />

      
      <glyph glyph-name="uniee" unicode="&#xee;" d="M-119 1247L152 1485L334 1485L598 1247L401 1247L240 1358L78 1247L-119 1247M147 0L147 1102L334 1102L334 0L147 0Z"  horiz-adv-x="481" vert-adv-y="2048"  />

      
      <glyph glyph-name="unief" unicode="&#xef;" d="M-88 1282L-88 1485L98 1485L98 1282L-88 1282M147 0L147 1102L334 1102L334 0L147 0M381 1282L381 1485L569 1485L569 1282L381 1282Z"  horiz-adv-x="481" vert-adv-y="2048"  />

      
      <glyph glyph-name="unif0" unicode="&#xf0;" d="M72 549Q72 809 205 964.50Q338 1120 547 1120Q746 1120 862 958L864 961Q780 1152 584 1288L432 1196L340 1245L500 1343Q436 1381 338 1425L473 1548Q577 1497 657 1444L801 1532L895 1479L739 1382Q1087 1099 1087 647Q1087 318 947.50 145.50Q808-27 571-27Q339-27 205.50 127.50Q72 282 72 549M274 549Q274 355 350.50 244Q427 133 573 133Q712 133 798.50 239.50Q885 346 885 549Q885 749 797 855Q709 961 573 961Q428 961 351 850Q274 739 274 549Z"  horiz-adv-x="1173" vert-adv-y="2048"  />

      
      <glyph glyph-name="unif1" unicode="&#xf1;" d="M147 0L147 1102L334 1102L334 936Q445 1120 690 1120Q1053 1120 1053 696L1053 0L866 0L866 641Q866 698 861.50 740Q857 782 842.50 825.50Q828 869 802 896Q776 923 731.50 940.50Q687 958 625 958Q488 958 411 865.50Q334 773 334 598L334 0L147 0M244 1262Q264 1377 326 1434Q388 1491 479 1491Q521 1491 561.50 1475.50Q602 1460 629 1442Q656 1424 690.50 1408.50Q725 1393 756 1393Q795 1393 820.50 1416.50Q846 1440 852 1485L997 1485Q976 1366 912 1309.50Q848 1253 760 1253Q719 1253 677 1268.50Q635 1284 606.50 1302.50Q578 1321 543.50 1336.50Q509 1352 481 1352Q441 1352 417.50 1328.50Q394 1305 389 1262L244 1262Z"  horiz-adv-x="1183" vert-adv-y="2048"  />

      
      <glyph glyph-name="unif2" unicode="&#xf2;" d="M120 290Q120 290 98 346.50Q76 403 76 547Q76 691 120 804Q164 917 238.50 984Q313 1051 404.50 1085.50Q496 1120 598 1120Q700 1120 791.50 1085.50Q883 1051 957.50 984Q1032 917 1076 804Q1120 691 1120 547Q1120 403 1076 290Q1032 177 957.50 109.50Q883 42 791.50 7.50Q700-27 598-27Q496-27 404.50 7.50Q313 42 238.50 109.50Q164 177 120 290M254 1485L492 1485L678 1247L520 1247L254 1485M274 547Q274 441 299.50 360Q325 279 370.50 231.50Q416 184 473 160.50Q530 137 598 137Q739 137 830.50 241Q922 345 922 547Q922 653 896.50 733.50Q871 814 825.50 861.50Q780 909 723 932.50Q666 956 598 956Q454 956 364 857.50Q274 759 274 547Z"  horiz-adv-x="1196" vert-adv-y="2048"  />

      
      <glyph glyph-name="unif3" unicode="&#xf3;" d="M120 290Q120 290 98 346.50Q76 403 76 547Q76 691 120 804Q164 917 238.50 984Q313 1051 404.50 1085.50Q496 1120 598 1120Q700 1120 791.50 1085.50Q883 1051 957.50 984Q1032 917 1076 804Q1120 691 1120 547Q1120 403 1076 290Q1032 177 957.50 109.50Q883 42 791.50 7.50Q700-27 598-27Q496-27 404.50 7.50Q313 42 238.50 109.50Q164 177 120 290M274 547Q274 441 299.50 360Q325 279 370.50 231.50Q416 184 473 160.50Q530 137 598 137Q739 137 830.50 241Q922 345 922 547Q922 653 896.50 733.50Q871 814 825.50 861.50Q780 909 723 932.50Q666 956 598 956Q454 956 364 857.50Q274 759 274 547M520 1247L705 1485L944 1485L676 1247L520 1247Z"  horiz-adv-x="1196" vert-adv-y="2048"  />

      
      <glyph glyph-name="unif4" unicode="&#xf4;" d="M120 290Q120 290 98 346.50Q76 403 76 547Q76 691 120 804Q164 917 238.50 984Q313 1051 404.50 1085.50Q496 1120 598 1120Q700 1120 791.50 1085.50Q883 1051 957.50 984Q1032 917 1076 804Q1120 691 1120 547Q1120 403 1076 290Q1032 177 957.50 109.50Q883 42 791.50 7.50Q700-27 598-27Q496-27 404.50 7.50Q313 42 238.50 109.50Q164 177 120 290M240 1247L510 1485L692 1485L956 1247L760 1247L598 1358L436 1247L240 1247M274 547Q274 441 299.50 360Q325 279 370.50 231.50Q416 184 473 160.50Q530 137 598 137Q739 137 830.50 241Q922 345 922 547Q922 653 896.50 733.50Q871 814 825.50 861.50Q780 909 723 932.50Q666 956 598 956Q454 956 364 857.50Q274 759 274 547Z"  horiz-adv-x="1196" vert-adv-y="2048"  />

      
      <glyph glyph-name="unif5" unicode="&#xf5;" d="M120 290Q120 290 98 346.50Q76 403 76 547Q76 691 120 804Q164 917 238.50 984Q313 1051 404.50 1085.50Q496 1120 598 1120Q700 1120 791.50 1085.50Q883 1051 957.50 984Q1032 917 1076 804Q1120 691 1120 547Q1120 403 1076 290Q1032 177 957.50 109.50Q883 42 791.50 7.50Q700-27 598-27Q496-27 404.50 7.50Q313 42 238.50 109.50Q164 177 120 290M221 1262Q241 1377 303.50 1434Q366 1491 457 1491Q510 1491 559 1466.50Q608 1442 651.50 1417.50Q695 1393 733 1393Q772 1393 797.50 1416.50Q823 1440 829 1485L975 1485Q954 1366 889.50 1309.50Q825 1253 737 1253Q696 1253 654 1268.50Q612 1284 584 1302.50Q556 1321 521.50 1336.50Q487 1352 459 1352Q419 1352 395.50 1328.50Q372 1305 367 1262L221 1262M274 547Q274 441 299.50 360Q325 279 370.50 231.50Q416 184 473 160.50Q530 137 598 137Q739 137 830.50 241Q922 345 922 547Q922 653 896.50 733.50Q871 814 825.50 861.50Q780 909 723 932.50Q666 956 598 956Q454 956 364 857.50Q274 759 274 547Z"  horiz-adv-x="1196" vert-adv-y="2048"  />

      
      <glyph glyph-name="unif6" unicode="&#xf6;" d="M120 290Q120 290 98 346.50Q76 403 76 547Q76 691 120 804Q164 917 238.50 984Q313 1051 404.50 1085.50Q496 1120 598 1120Q700 1120 791.50 1085.50Q883 1051 957.50 984Q1032 917 1076 804Q1120 691 1120 547Q1120 403 1076 290Q1032 177 957.50 109.50Q883 42 791.50 7.50Q700-27 598-27Q496-27 404.50 7.50Q313 42 238.50 109.50Q164 177 120 290M270 1282L270 1485L457 1485L457 1282L270 1282M274 547Q274 441 299.50 360Q325 279 370.50 231.50Q416 184 473 160.50Q530 137 598 137Q739 137 830.50 241Q922 345 922 547Q922 653 896.50 733.50Q871 814 825.50 861.50Q780 909 723 932.50Q666 956 598 956Q454 956 364 857.50Q274 759 274 547M739 1282L739 1485L928 1485L928 1282L739 1282Z"  horiz-adv-x="1196" vert-adv-y="2048"  />

      
      <glyph glyph-name="unif7" unicode="&#xf7;" d="M160 440L160 616L1229 616L1229 440L160 440M582 66L582 301L817 301L817 66L582 66M582 778L582 1014L817 1014L817 778L582 778Z"  horiz-adv-x="1388" vert-adv-y="2048"  />

      
      <glyph glyph-name="unif8" unicode="&#xf8;" d="M76 547Q76 691 120 804Q164 917 238.50 984Q313 1051 404.50 1085.50Q496 1120 598 1120Q792 1120 928 1008L1008 1100L1092 1028L1006 930Q1120 780 1120 547Q1120 403 1076 290Q1032 177 957.50 109.50Q883 42 791.50 7.50Q700-27 598-27Q402-27 268 84L172-27L92 47L190 162Q76 312 76 547M274 547Q274 401 319 309L811 874Q726 956 598 956Q454 956 364 857.50Q274 759 274 547M383 217Q466 137 598 137Q739 137 830.50 241Q922 345 922 547Q922 680 877 782L383 217Z"  horiz-adv-x="1196" vert-adv-y="2048"  />

      
      <glyph glyph-name="unif9" unicode="&#xf9;" d="M131 397L131 1102L317 1102L317 453Q317 396 321.50 354Q326 312 340.50 268.50Q355 225 379.50 197.50Q404 170 447 152.50Q490 135 549 135Q682 135 755.50 228Q829 321 829 496L829 1102L1016 1102L1016 0L829 0L829 158Q717-27 483-27Q131-27 131 397M276 1485L514 1485L700 1247L543 1247L276 1485Z"  horiz-adv-x="1163" vert-adv-y="2048"  />

      
      <glyph glyph-name="unifa" unicode="&#xfa;" d="M131 397L131 1102L317 1102L317 453Q317 396 321.50 354Q326 312 340.50 268.50Q355 225 379.50 197.50Q404 170 447 152.50Q490 135 549 135Q682 135 755.50 228Q829 321 829 496L829 1102L1016 1102L1016 0L829 0L829 158Q717-27 483-27Q131-27 131 397M502 1247L686 1485L926 1485L657 1247L502 1247Z"  horiz-adv-x="1163" vert-adv-y="2048"  />

      
      <glyph glyph-name="unifb" unicode="&#xfb;" d="M131 397L131 1102L317 1102L317 453Q317 396 321.50 354Q326 312 340.50 268.50Q355 225 379.50 197.50Q404 170 447 152.50Q490 135 549 135Q682 135 755.50 228Q829 321 829 496L829 1102L1016 1102L1016 0L829 0L829 158Q717-27 483-27Q131-27 131 397M221 1247L492 1485L674 1485L938 1247L741 1247L580 1358L418 1247L221 1247Z"  horiz-adv-x="1163" vert-adv-y="2048"  />

      
      <glyph glyph-name="unifc" unicode="&#xfc;" d="M131 397L131 1102L317 1102L317 453Q317 396 321.50 354Q326 312 340.50 268.50Q355 225 379.50 197.50Q404 170 447 152.50Q490 135 549 135Q682 135 755.50 228Q829 321 829 496L829 1102L1016 1102L1016 0L829 0L829 158Q717-27 483-27Q131-27 131 397M252 1282L252 1485L438 1485L438 1282L252 1282M721 1282L721 1485L909 1485L909 1282L721 1282Z"  horiz-adv-x="1163" vert-adv-y="2048"  />

      
      <glyph glyph-name="unifd" unicode="&#xfd;" d="M0 1102L207 1102L487 252L760 1102L954 1102L561-47Q535-125 513.50-172.50Q492-220 463-259.50Q434-299 395.50-318.50Q357-338 305-348Q253-358 178-358L82-358L82-203L158-203Q201-203 225-201Q249-199 277.50-189.50Q306-180 323-160.50Q340-141 357-107.50Q374-74 389-23L397 0L0 1102M393 1247L578 1485L817 1485L549 1247L393 1247Z"  horiz-adv-x="954" vert-adv-y="2048"  />

      
      <glyph glyph-name="unife" unicode="&#xfe;" d="M147-358L147 1485L334 1485L334 928Q446 1120 694 1120Q895 1120 1025 966Q1155 812 1155 547Q1155 280 1025 126.50Q895-27 694-27Q446-27 334 166L334-358L147-358M352.50 733.50Q352.50 733.50 339.25 692.75Q326 652 326 547Q326 442 352.50 360.50Q379 279 424.50 230.50Q470 182 526.50 157.50Q583 133 647 133Q796 133 876 241.50Q956 350 956 547Q956 744 876 852.50Q796 961 647 961Q583 961 526.50 936.50Q470 912 424.50 863.50Q379 815 352.50 733.50Z"  horiz-adv-x="1230" vert-adv-y="2048"  />

      
      <glyph glyph-name="uniff" unicode="&#xff;" d="M0 1102L207 1102L487 252L760 1102L954 1102L561-47Q535-125 513.50-172.50Q492-220 463-259.50Q434-299 395.50-318.50Q357-338 305-348Q253-358 178-358L82-358L82-203L158-203Q201-203 225-201Q249-199 277.50-189.50Q306-180 323-160.50Q340-141 357-107.50Q374-74 389-23L397 0L0 1102M150 1282L150 1485L336 1485L336 1282L150 1282M618 1282L618 1485L807 1485L807 1282L618 1282Z"  horiz-adv-x="954" vert-adv-y="2048"  />

      
      <glyph glyph-name="uni0152" unicode="&#x0152;" d="M104 743Q104 908 155.50 1050.50Q207 1193 298.50 1294.50Q390 1396 520.50 1453.50Q651 1511 803 1511Q1117 1511 1288 1284L1288 1485L2251 1485L2251 1305L1454 1305L1454 854L2204 854L2204 674L1454 674L1454 180L2251 180L2251 0L1288 0L1288 203Q1117-27 799-27Q590-27 431 72Q272 171 188 345Q104 519 104 743M317 743Q317 465 454 307.50Q591 150 801 150Q1011 150 1147.50 307.50Q1284 465 1284 743Q1284 882 1246.50 995.50Q1209 1109 1143.50 1182.50Q1078 1256 990.50 1295.50Q903 1335 801 1335Q699 1335 611.50 1295.50Q524 1256 458 1182.50Q392 1109 354.50 995.50Q317 882 317 743Z"  horiz-adv-x="2322" vert-adv-y="2048"  />

      
      <glyph glyph-name="uni0153" unicode="&#x0153;" d="M120 290Q120 290 98 346.50Q76 403 76 547Q76 691 120 804Q164 917 238.50 984Q313 1051 404.50 1085.50Q496 1120 598 1120Q728 1120 836.50 1064.50Q945 1009 1012 897Q1077 1004 1183.50 1062Q1290 1120 1427 1120Q1593 1120 1714 1036.50Q1835 953 1891.50 811.50Q1948 670 1935 496L1102 496Q1101 334 1195.50 234.50Q1290 135 1430 135Q1552 135 1621.50 182.50Q1691 230 1729 319L1921 319Q1880 167 1754 70Q1628-27 1434-27Q1141-27 1010 190Q943 81 835.50 27Q728-27 598-27Q496-27 404.50 7.50Q313 42 238.50 109.50Q164 177 120 290M274 547Q274 339 365 236Q456 133 598 133Q739 133 830.50 239Q922 345 922 547Q922 755 831 858Q740 961 598 961Q530 961 473 938Q416 915 370.50 867.50Q325 820 299.50 738Q274 656 274 547M1104 649L1739 649Q1736 776 1652.50 869.50Q1569 963 1427 963Q1284 963 1197 880Q1110 797 1104 649Z"  horiz-adv-x="2007" vert-adv-y="2048"  />

      
      <glyph glyph-name="uni0178" unicode="&#x0178;" d="M0 1485L229 1485L635 760L1049 1485L1278 1485L733 575L733 0L524 0L524 580L0 1485M311 1597L311 1800L498 1800L498 1597L311 1597M780 1597L780 1800L969 1800L969 1597L780 1597Z"  horiz-adv-x="1277" vert-adv-y="2048"  />

      
      <glyph glyph-name="uni02C6" unicode="&#x02C6;" d="M45 1247L315 1485L498 1485L762 1247L565 1247L403 1358L242 1247L45 1247Z"  horiz-adv-x="806" vert-adv-y="2048"  />

      
      <glyph glyph-name="uni02DC" unicode="&#x02DC;" d="M45 1262Q65 1377 127.50 1434Q190 1491 281 1491Q334 1491 383 1466.50Q432 1442 475.50 1417.50Q519 1393 557 1393Q596 1393 621.50 1416.50Q647 1440 653 1485L799 1485Q778 1366 713.50 1309.50Q649 1253 561 1253Q520 1253 478 1268.50Q436 1284 408 1302.50Q380 1321 345.50 1336.50Q311 1352 283 1352Q243 1352 219 1328.50Q195 1305 190 1262L45 1262Z"  horiz-adv-x="843" vert-adv-y="2048"  />

      
      <glyph glyph-name="uni2010" unicode="&#x2010;" d="M88 473L88 649L739 649L739 473L88 473Z"  horiz-adv-x="829" vert-adv-y="2048"  />

      
      <glyph glyph-name="uni2011" unicode="&#x2011;" d="M88 473L88 649L739 649L739 473L88 473Z"  horiz-adv-x="829" vert-adv-y="2048"  />

      
      <glyph glyph-name="uni2012" unicode="&#x2012;" d="M88 473L88 649L739 649L739 473L88 473Z"  horiz-adv-x="829" vert-adv-y="2048"  />

      
      <glyph glyph-name="uni2013" unicode="&#x2013;" d="M78 473L78 649L973 649L973 473L78 473Z"  horiz-adv-x="1048" vert-adv-y="2048"  />

      
      <glyph glyph-name="uni2014" unicode="&#x2014;" d="M66 473L66 649L1415 649L1415 473L66 473Z"  horiz-adv-x="1480" vert-adv-y="2048"  />

      
      <glyph glyph-name="uni2018" unicode="&#x2018;" d="M133 965L133 1217L258 1485L377 1485L270 1200L369 1200L369 965L133 965Z"  horiz-adv-x="499" vert-adv-y="2048"  />

      
      <glyph glyph-name="uni2019" unicode="&#x2019;" d="M125 965L233 1249L133 1249L133 1485L369 1485L369 1233L244 965L125 965Z"  horiz-adv-x="501" vert-adv-y="2048"  />

      
      <glyph glyph-name="uni201A" unicode="&#x201A;" d="M125-285L233 0L133 0L133 236L369 236L369-16L244-285L125-285Z"  horiz-adv-x="499" vert-adv-y="2048"  />

      
      <glyph glyph-name="uni201C" unicode="&#x201C;" d="M133 965L133 1217L258 1485L377 1485L270 1200L369 1200L369 965L133 965M475 965L475 1217L600 1485L719 1485L612 1200L711 1200L711 965L475 965Z"  horiz-adv-x="843" vert-adv-y="2048"  />

      
      <glyph glyph-name="uni201D" unicode="&#x201D;" d="M125 965L233 1249L133 1249L133 1485L369 1485L369 1233L244 965L125 965M467 965L575 1249L475 1249L475 1485L711 1485L711 1233L586 965L467 965Z"  horiz-adv-x="843" vert-adv-y="2048"  />

      
      <glyph glyph-name="uni201E" unicode="&#x201E;" d="M125-285L233 0L133 0L133 236L369 236L369-16L244-285L125-285M487-285L596 0L496 0L496 236L731 236L731-16L606-285L487-285Z"  horiz-adv-x="864" vert-adv-y="2048"  />

      
      <glyph glyph-name="uni2022" unicode="&#x2022;" d="M88 571Q88 721 194.50 827.50Q301 934 449 934Q609 934 717 828.50Q825 723 825 571Q825 411 717.50 304Q610 197 449 197Q300 197 194 305Q88 413 88 571Z"  horiz-adv-x="915" vert-adv-y="2048"  />

      
      <glyph glyph-name="uni2026" unicode="&#x2026;" d="M133 0L133 236L369 236L369 0L133 0M635 0L635 236L870 236L870 0L635 0M1137 0L1137 236L1372 236L1372 0L1137 0Z"  horiz-adv-x="1505" vert-adv-y="2048"  />

      
      <glyph glyph-name="uni2039" unicode="&#x2039;" d="M20 559L346 1026L547 1026L240 559L547 90L346 90L20 559Z"  horiz-adv-x="591" vert-adv-y="2048"  />

      
      <glyph glyph-name="uni203A" unicode="&#x203A;" d="M45 90L354 559L45 1026L246 1026L571 559L246 90L45 90Z"  horiz-adv-x="591" vert-adv-y="2048"  />

      
      <glyph glyph-name="uni20AC" unicode="&#x20AC;" d="M-31 528L57 659L178 659Q176 688 176 750Q176 805 178 834L-31 834L57 963L195 963Q245 1221 410 1366Q575 1511 823 1511Q1048 1511 1206.50 1377Q1365 1243 1391 1020L1196 1020Q1175 1182 1070.50 1269Q966 1356 811 1356Q655 1356 545.50 1254.50Q436 1153 397 963L973 963L885 834L379 834Q377 805 377 750Q377 688 379 659L807 659L719 528L397 528Q437 337 545.50 233Q654 129 811 129Q967 129 1072 215.50Q1177 302 1200 465L1395 465Q1369 239 1207.50 106Q1046-27 817-27Q565-27 404 119Q243 265 195 528L-31 528Z"  horiz-adv-x="1437" vert-adv-y="2048"  />

      
      <glyph glyph-name="uni2122" unicode="&#x2122;" d="M10 1352L10 1485L684 1485L684 1352L428 1352L428 668L266 668L266 1352L10 1352M754 668L754 1485L1006 1485L1219 872L1423 1485L1671 1485L1671 668L1509 668L1509 1270L1294 668L1133 668L915 1270L915 668L754 668Z"  horiz-adv-x="1738" vert-adv-y="2048"  />

      
      <glyph glyph-name="uni25FC" unicode="&#x25FC;" d="M0 0L0 1106L1106 1106L1106 0L0 0Z"  horiz-adv-x="1105" vert-adv-y="2048"  />

      
      <glyph glyph-name="uniFB01" unicode="&#xFB01;" d="M41 952L41 1102L195 1102L195 1182Q195 1273 206 1327Q217 1381 250 1418.50Q283 1456 340 1470.50Q397 1485 492 1485L588 1485L588 1329L496 1329Q423 1329 402 1304Q381 1279 381 1192L381 1102L588 1102L588 952L381 952L381 0L195 0L195 952L41 952M788 0L788 1102L975 1102L975 0L788 0M788 1260L788 1485L975 1485L975 1260L788 1260Z"  horiz-adv-x="1122" vert-adv-y="2048"  />

      
      <glyph glyph-name="uniFB02" unicode="&#xFB02;" d="M41 952L41 1102L195 1102L195 1182Q195 1273 206 1327Q217 1381 250 1418.50Q283 1456 340 1470.50Q397 1485 492 1485L588 1485L588 1329L496 1329Q423 1329 402 1304Q381 1279 381 1192L381 1102L588 1102L588 952L381 952L381 0L195 0L195 952L41 952M788 0L788 1485L975 1485L975 0L788 0Z"  horiz-adv-x="1122" vert-adv-y="2048"  />

      

  </font>
</defs>
</svg>
