<svg width="56" height="40" viewBox="0 0 56 40" fill="none" xmlns="http://www.w3.org/2000/svg">
<path d="M23.1831 16.341C23.1831 7.31804 30.4835 0 39.4846 0C48.4857 0 55.786 7.31804 55.786 16.341C55.786 27.2787 46.3924 31.4491 40.0864 39.6065C39.9032 39.8426 39.7463 39.9738 39.4846 39.9738C39.2229 39.9738 39.0659 39.8164 38.8827 39.6065C32.5767 31.423 23.1831 27.2787 23.1831 16.341ZM20.6974 16.341C20.6974 13.1935 21.4824 10.2295 22.843 7.60656C23.0261 7.26557 22.9476 6.81967 22.6597 6.55737C20.6711 4.66885 18.6825 2.67541 16.9032 0.393443C16.7201 0.157378 16.5631 0.0262301 16.3015 0.0262301C16.0397 0.0262301 15.8827 0.183606 15.6996 0.393443C9.41978 8.57705 0 12.7213 0 23.659C0 32.682 7.30032 40 16.3015 40C21.4039 40 25.9305 37.6656 28.9135 33.9935C29.2014 33.6525 29.1751 33.1279 28.835 32.8131C24.5699 28.5378 20.6974 23.8426 20.6974 16.341Z" fill="#F73232"/>
</svg>
